<?xml version="1.0" encoding="UTF-8"?>
<svg width="20px" height="20px" viewBox="0 0 20 20" version="1.1" xmlns="http://www.w3.org/2000/svg" xmlns:xlink="http://www.w3.org/1999/xlink">
    <title>icon-blog</title>
    <g id="Page-1" stroke="none" stroke-width="1" fill="none" fill-rule="evenodd">
        <g id="icon-blog" transform="translate(0.000000, 0.043461)" fill="#FFFFFF" fill-rule="nonzero">
            <path d="M17.9961464,0 L1.73410405,0 C0.777880539,0 0,0.777880539 0,1.73410405 L0,4.6628131 L19.7302505,4.6628131 L19.7302505,1.73410405 C19.7302505,0.777880539 18.9523699,0 17.9961464,0 Z M2.89017341,3.46820809 C2.57094412,3.46820809 2.31213873,3.2094027 2.31213873,2.89017341 C2.31213873,2.57086705 2.57094412,2.31213873 2.89017341,2.31213873 C3.2094027,2.31213873 3.46820809,2.57086705 3.46820809,2.89017341 C3.46820809,3.2094027 3.2094027,3.46820809 2.89017341,3.46820809 Z M5.20231214,3.46820809 C4.88308285,3.46820809 4.62427746,3.2094027 4.62427746,2.89017341 C4.62427746,2.57086705 4.88308285,2.31213873 5.20231214,2.31213873 C5.52154143,2.31213873 5.78034682,2.57086705 5.78034682,2.89017341 C5.78034682,3.2094027 5.52154143,3.46820809 5.20231214,3.46820809 Z M7.51445087,3.46820809 C7.19522158,3.46820809 6.93641618,3.2094027 6.93641618,2.89017341 C6.93641618,2.57086705 7.19522158,2.31213873 7.51445087,2.31213873 C7.83368015,2.31213873 8.09248555,2.57086705 8.09248555,2.89017341 C8.09248555,3.2094027 7.83368015,3.46820809 7.51445087,3.46820809 Z" id="Shape"></path>
            <path d="M0,5.81888247 L0,17.9961464 C0,18.9523699 0.777880539,19.7302505 1.73410405,19.7302505 L17.9961464,19.7302505 C18.9523699,19.7302505 19.7302505,18.9523699 19.7302505,17.9961464 L19.7302505,5.81888247 L0,5.81888247 Z M2.31213873,7.59152216 C2.31213873,7.27202312 2.57067437,7.01348748 2.89017341,7.01348748 L8.67052023,7.01348748 C8.99001927,7.01348748 9.24855491,7.27202312 9.24855491,7.59152216 L9.24855491,12.2157996 C9.24855491,12.5352987 8.99001927,12.7938343 8.67052023,12.7938343 L2.89017341,12.7938343 C2.57067437,12.7938343 2.31213873,12.5352987 2.31213873,12.2157996 L2.31213873,7.59152216 Z M16.8400771,17.4181118 L2.89017341,17.4181118 C2.57067437,17.4181118 2.31213873,17.1595761 2.31213873,16.8400771 C2.31213873,16.520578 2.57067437,16.2620424 2.89017341,16.2620424 L16.8400771,16.2620424 C17.1595761,16.2620424 17.4181118,16.520578 17.4181118,16.8400771 C17.4181118,17.1595761 17.1595761,17.4181118 16.8400771,17.4181118 Z M16.8400771,15.105973 L2.89017341,15.105973 C2.57067437,15.105973 2.31213873,14.8474374 2.31213873,14.5279383 C2.31213873,14.2084393 2.57067437,13.9499037 2.89017341,13.9499037 L16.8400771,13.9499037 C17.1595761,13.9499037 17.4181118,14.2084393 17.4181118,14.5279383 C17.4181118,14.8474374 17.1595761,15.105973 16.8400771,15.105973 Z M16.8400771,10.4816956 L10.982659,10.4816956 C10.6631599,10.4816956 10.4046243,10.2231599 10.4046243,9.90366089 C10.4046243,9.58416185 10.6631599,9.3256262 10.982659,9.3256262 L16.8400771,9.3256262 C17.1595761,9.3256262 17.4181118,9.58416185 17.4181118,9.90366089 C17.4181118,10.2231599 17.1595761,10.4816956 16.8400771,10.4816956 Z M16.8400771,12.7745665 L10.982659,12.7745665 C10.6631599,12.7745665 10.4046243,12.5160308 10.4046243,12.1965318 C10.4046243,11.8770328 10.6631599,11.6184971 10.982659,11.6184971 L16.8400771,11.6184971 C17.1595761,11.6184971 17.4181118,11.8770328 17.4181118,12.1965318 C17.4181118,12.5160308 17.1595761,12.7745665 16.8400771,12.7745665 Z M16.8400771,8.16955684 L10.982659,8.16955684 C10.6631599,8.16955684 10.4046243,7.91102119 10.4046243,7.59152216 C10.4046243,7.27202312 10.6631599,7.01348748 10.982659,7.01348748 L16.8400771,7.01348748 C17.1595761,7.01348748 17.4181118,7.27202312 17.4181118,7.59152216 C17.4181118,7.91102119 17.1595761,8.16955684 16.8400771,8.16955684 Z" id="Shape"></path>
        </g>
    </g>
</svg>