<?xml version="1.0" encoding="UTF-8"?>
<svg width="20px" height="17px" viewBox="0 0 20 17" version="1.1" xmlns="http://www.w3.org/2000/svg" xmlns:xlink="http://www.w3.org/1999/xlink">
    <title>icon-twitter</title>
    <g id="Page-1" stroke="none" stroke-width="1" fill="none" fill-rule="evenodd">
        <g id="icon-twitter" transform="translate(0.000000, 0.273820)" fill="#FFFFFF" fill-rule="nonzero">
            <path d="M19.7302505,1.89780347 C18.9965318,2.21965318 18.2147206,2.43298651 17.3996146,2.53657033 C18.2381503,2.03591522 18.8781503,1.24917148 19.1790366,0.30088632 C18.3972254,0.767013487 17.534027,1.09626204 16.614104,1.28 C15.8717534,0.48955684 14.8137187,0 13.659499,0 C11.4201156,0 9.61726397,1.81764933 9.61726397,4.04593449 C9.61726397,4.36655106 9.64439306,4.67483622 9.71098266,4.9683237 C6.34820809,4.80431599 3.37263969,3.19260116 1.37371869,0.737418112 C1.02473988,1.34289017 0.820038536,2.03591522 0.820038536,2.78196532 C0.820038536,4.1828131 1.54142582,5.42458574 2.61672447,6.14350674 C1.96685934,6.13117534 1.32932563,5.94250482 0.789210019,5.64531792 C0.789210019,5.65764933 0.789210019,5.67368015 0.789210019,5.68971098 C0.789210019,7.65533719 2.19129094,9.28801541 4.02990366,9.66412331 C3.70065511,9.75414258 3.34181118,9.7973025 2.9694027,9.7973025 C2.71044316,9.7973025 2.44901734,9.78250482 2.20362235,9.72824663 C2.72770713,11.3300963 4.21487476,12.5077457 5.98319846,12.545973 C4.60701349,13.6225048 2.85965318,14.2711368 0.968015414,14.2711368 C0.636300578,14.2711368 0.318150289,14.2563391 -2.19049784e-15,14.2156455 C1.79175337,15.3710983 3.91522158,16.0308285 6.20516378,16.0308285 C13.6484008,16.0308285 17.7177649,9.86512524 17.7177649,4.52069364 C17.7177649,4.34188825 17.7115992,4.16924855 17.7029672,3.997842 C18.5057418,3.42813102 19.1802697,2.71660886 19.7302505,1.89780347 Z" id="Path"></path>
        </g>
    </g>
</svg>