<?xml version="1.0" encoding="UTF-8"?>
<svg width="20px" height="18px" viewBox="0 0 20 18" version="1.1" xmlns="http://www.w3.org/2000/svg" xmlns:xlink="http://www.w3.org/1999/xlink">
    <title>icon-book</title>
    <g id="icon-book" stroke="none" stroke-width="1" fill="none" fill-rule="evenodd">
        <g transform="translate(3.000000, 0.500000)" fill="#FFFFFF" fill-rule="nonzero" id="Shape">
            <path d="M12.6208654,0 L11.0459878,0 L11.0459878,4.94931818 C11.0459878,5.29704545 10.6673514,5.46897727 10.3740122,5.03238636 L9.33380245,3.48693182 L8.29359266,5.03238636 C7.99817308,5.46704545 7.62161713,5.29704545 7.62161713,4.94931818 L7.62161713,0 L2.34151224,0 C1.06512281,0.0031875 0.0322465035,0.964894886 0.0322465035,2.15011364 L0.0322465035,14.8421591 C0.0356791958,16.025108 1.06756731,16.9832898 2.34151224,16.9864773 L12.6229458,16.9864773 C12.9041145,16.9860426 13.1735809,16.881821 13.3718969,16.6967045 C13.5712531,16.512554 13.6834917,16.2623352 13.6839598,16.00125 L13.6839598,0.987159091 C13.6828156,0.442386364 13.2075437,0.0010625 12.6208654,0 Z M12.8185052,14.4364773 L2.78672203,14.4480682 C2.56806993,14.4620739 2.39409484,14.6236705 2.3790118,14.8266563 C2.36231643,15.0512301 2.54487325,15.2458608 2.78672203,15.2613636 L12.8185052,15.2613636 L12.8164248,16.0109091 C12.8165288,16.0555824 12.7978571,16.0985653 12.7644143,16.1306818 C12.7298274,16.1617358 12.683538,16.1790739 12.6354283,16.1789777 L2.34151224,16.1789777 C1.55157692,16.1789777 0.911223776,15.5843636 0.911223776,14.8508523 C0.911223776,14.1173409 1.55157692,13.5227273 2.34151224,13.5227273 L12.6354283,13.5227273 C12.7360686,13.5237898 12.817361,13.5992756 12.8185052,13.6927273 L12.8185052,14.4364773 Z"></path>
        </g>
    </g>
</svg>