<?xml version="1.0" encoding="UTF-8"?>
<svg width="15px" height="15px" viewBox="0 0 15 15" version="1.1" xmlns="http://www.w3.org/2000/svg" xmlns:xlink="http://www.w3.org/1999/xlink">
    <title>icon-analytics</title>
    <g id="Page-1" stroke="none" stroke-width="1" fill="none" fill-rule="evenodd">
        <g id="icon-analytics" transform="translate(0.865125, 0.782274)" fill="#FFFFFF" fill-rule="nonzero">
            <path d="M3.21417578,6.41667578 L0.2975,6.41667578 C0.1365,6.41667578 0.00582421875,6.54735156 0.00582421875,6.70835156 L0.00582421875,13.7083516 C0.00582421875,13.8693242 0.1365,14 0.2975,14 L3.21417578,14 C3.37517578,14 3.50585156,13.8693242 3.50585156,13.7083242 L3.50585156,6.70832422 C3.50585156,6.54732422 3.37575,6.41667578 3.21417578,6.41667578 Z" id="Path"></path>
            <path d="M8.4525,0 L5.53582422,0 C5.37482422,0 5.24414844,0.130675781 5.24414844,0.291675781 L5.24414844,13.7083516 C5.24414844,13.8693516 5.37482422,14.0000273 5.53582422,14.0000273 L8.4525,14.0000273 C8.6135,14.0000273 8.74417578,13.8693516 8.74417578,13.7083516 L8.74417578,0.291675781 C8.74417578,0.130675781 8.6135,0 8.4525,0 Z" id="Path"></path>
            <path d="M13.7025,2.91667578 L10.7858242,2.91667578 C10.6248242,2.91667578 10.4941484,3.04735156 10.4941484,3.20835156 L10.4941484,13.7083516 C10.4941484,13.8693516 10.6248242,14.0000273 10.7858242,14.0000273 L13.7025,14.0000273 C13.8635,14.0000273 13.9941758,13.8693516 13.9941758,13.7083516 L13.9941758,3.20835156 C13.9941758,3.04732422 13.8635,2.91667578 13.7025,2.91667578 Z" id="Path"></path>
        </g>
    </g>
</svg>