<?xml version="1.0" encoding="UTF-8"?>
<svg width="20px" height="19px" viewBox="0 0 20 19" version="1.1" xmlns="http://www.w3.org/2000/svg" xmlns:xlink="http://www.w3.org/1999/xlink">
    <title>icon-podcast</title>
    <g id="icon-podcast" stroke="none" stroke-width="1" fill="none" fill-rule="evenodd">
        <g transform="translate(3.660886, 0.354174)" fill="#FFFFFF" fill-rule="nonzero" id="Path">
            <path d="M6.34069364,12.6742582 C7.30901734,12.6742582 8.13768786,12.3295183 8.82712909,11.6403468 C9.51645472,10.9511753 9.86115607,10.1220809 9.86115607,9.1538343 L9.86115607,3.52080925 C9.86115607,2.55256262 9.51672447,1.72381503 8.82712909,1.03429672 C8.13768786,0.344932563 7.30901734,0 6.34069364,0 C5.37248555,0 4.54369942,0.344932563 3.85421965,1.03429672 C3.16470135,1.72369942 2.82,2.55256262 2.82,3.52080925 L2.82,9.1538343 C2.82,10.1220424 3.16485549,10.9511753 3.85421965,11.6403468 C4.54358382,12.3295183 5.37248555,12.6742582 6.34069364,12.6742582 Z"></path>
            <path d="M12.4687091,7.2504817 C12.3297495,7.11109827 12.1643545,7.04138728 11.9736416,7.04138728 C11.7831214,7.04138728 11.6181118,7.11109827 11.4785742,7.2504817 C11.3393449,7.38982659 11.2696724,7.55483622 11.2696724,7.74547206 L11.2696724,9.1538343 C11.2696724,10.5108285 10.7872832,11.6714836 9.82273603,12.6359923 C8.85849711,13.6005395 7.69768786,14.0828131 6.34065511,14.0828131 C4.98366089,14.0828131 3.82296724,13.6005395 2.8583815,12.6359923 C1.89391137,11.6717534 1.41171484,10.5108671 1.41171484,9.1538343 L1.41171484,7.74547206 C1.41171484,7.55483622 1.34200385,7.38982659 1.2026975,7.2504817 C1.06331407,7.11109827 0.898458574,7.04138728 0.707630058,7.04138728 C0.516801541,7.04138728 0.351753372,7.11109827 0.212447013,7.2504817 C0.0730250482,7.38982659 0.00335260116,7.55483622 0.00335260116,7.74547206 L0.00335260116,9.1538343 C0.00335260116,10.7748362 0.544393064,12.1850096 1.6261657,13.3841233 C2.70797688,14.5832755 4.04473988,15.2708671 5.63649326,15.4467823 L5.63649326,16.8992293 L2.81996146,16.8992293 C2.62924855,16.8992293 2.46423892,16.9690173 2.32489403,17.1084008 C2.1855106,17.2476686 2.11579961,17.4127553 2.11579961,17.6034682 C2.11579961,17.7938728 2.1855106,17.9592678 2.32489403,18.0985356 C2.46423892,18.2378035 2.62924855,18.3077071 2.81996146,18.3077071 L9.86115607,18.3077071 C10.0518304,18.3077071 10.2170713,18.237842 10.3562235,18.0985356 C10.4957611,17.9593064 10.5655106,17.7939114 10.5655106,17.6034682 C10.5655106,17.4127938 10.4957611,17.2477071 10.3562235,17.1084008 C10.2171098,16.9690173 10.051869,16.8992293 9.86115607,16.8992293 L7.0449711,16.8992293 L7.0449711,15.4467823 C8.63645472,15.2708671 9.97310212,14.5832755 11.0550289,13.3841233 C12.1369557,12.1850096 12.6781503,10.7748362 12.6781503,9.1538343 L12.6781503,7.74547206 C12.6781503,7.55487476 12.6082852,7.38998073 12.4687091,7.2504817 Z"></path>
        </g>
    </g>
</svg>