<?xml version="1.0" encoding="UTF-8"?>
<svg width="20px" height="18px" viewBox="0 0 20 18" version="1.1" xmlns="http://www.w3.org/2000/svg" xmlns:xlink="http://www.w3.org/1999/xlink">
    <title>icon-newsletter</title>
    <g id="Page-1" stroke="none" stroke-width="1" fill="none" fill-rule="evenodd">
        <g id="icon-newsletter" transform="translate(0.000000, 0.116895)" fill="#FFFFFF" fill-rule="nonzero">
            <path d="M19.7211442,5.60353342 C19.7181088,5.57697347 19.7135557,5.55269008 19.7052082,5.52688899 C19.6976197,5.50336446 19.6869957,5.48287535 19.674854,5.46238625 C19.6627123,5.44189714 19.6513295,5.42216689 19.6353935,5.40319549 C19.6194575,5.38346524 19.5997273,5.36752927 19.5784793,5.3515933 C19.5663376,5.34172818 19.5602668,5.32958648 19.5466074,5.32199793 L11.3623477,0.410683267 C10.5238121,-0.0931969764 9.20795613,-0.0931969764 8.36942048,0.410683267 L0.185160812,5.32199793 C0.172260264,5.32958648 0.164671706,5.34172818 0.153288869,5.3515933 C0.132040907,5.36752927 0.112310657,5.38346524 0.0956158293,5.40319549 C0.0796798577,5.42216689 0.0675381651,5.44189714 0.0561553283,5.4631451 C0.0440136357,5.48363421 0.0333896547,5.50564103 0.0258010968,5.52764784 C0.0174536831,5.55269008 0.0136594042,5.57697347 0.010623981,5.60429228 C0.00682970209,5.61871054 0,5.63161109 0,5.6467882 L0,15.5119134 C0,16.5576167 0.851436194,17.4090529 1.89713947,17.4090529 L17.833111,17.4090529 C18.8788143,17.4090529 19.7302505,16.5576167 19.7302505,15.5119134 L19.7302505,5.6467882 C19.7302505,5.63161109 19.7234208,5.61871054 19.7211442,5.60353342 Z M8.7587135,1.06178153 C9.35820957,0.701325033 10.3712821,0.701325033 10.9707781,1.06178153 L18.9713947,5.86154439 L18.9713947,5.87444494 L11.534608,10.336517 L16.7646421,13.5024633 C16.943732,13.6117386 17.0014051,13.8439484 16.8936475,14.0245561 C16.8215562,14.1421787 16.696345,14.2074403 16.5680984,14.2074403 C16.5013191,14.2074403 16.4337809,14.1899867 16.3723136,14.1528027 L10.7249088,10.7341574 C10.1838447,10.9079354 9.54868238,10.9079354 9.00685934,10.7341574 L3.36021343,14.1528027 C3.29874611,14.1899867 3.23120794,14.2074403 3.16442863,14.2074403 C3.03618201,14.2074403 2.9109708,14.1421787 2.83963836,14.0245561 C2.73112198,13.8454661 2.78879502,13.6124974 2.96788499,13.5024633 L8.19791908,10.336517 L0.761132355,5.87444494 L0.761132355,5.86154439 L8.7587135,1.06178153 Z" id="Shape"></path>
        </g>
    </g>
</svg>