<?xml version="1.0" encoding="UTF-8"?>
<svg width="139px" height="41px" viewBox="0 0 139 41" version="1.1" xmlns="http://www.w3.org/2000/svg" xmlns:xlink="http://www.w3.org/1999/xlink">
    <title>Group Copy 3</title>
    <g id="Page-1" stroke="none" stroke-width="1" fill="none" fill-rule="evenodd">
        <g id="Group-Copy-3" transform="translate(0.000000, 0.500000)" fill="#FFFFFF" fill-rule="nonzero">
            <g id="Page-1">
                <path d="M19.9074,-7.62938989e-06 C30.9019,-7.62938989e-06 39.8148,8.91283 39.8148,19.9074 C39.8148,30.9019 30.9019,39.8148 19.9074,39.8148 C8.91284,39.8148 1.0658141e-13,30.9019 1.0658141e-13,19.9074 C1.0658141e-13,8.91283 8.91284,-7.62938989e-06 19.9074,-7.62938989e-06 Z M24.2375,14 L9.74375,14 L9.74375,26 L14.43125,26 L14.43125,22.625 L21.7625,22.625 C22.7625,22.625 23.503125,22.6625 23.984375,22.7375 C24.465625,22.8125 24.778125,22.946875 24.921875,23.140625 C25.0450893,23.3066964 25.1154974,23.5393495 25.1330995,23.8385842 L25.1375,23.99375 L25.1375,26 L29.825,26 L29.825,23.43125 C29.825,22.88125 29.665625,22.459375 29.346875,22.165625 C29.028125,21.871875 28.465625,21.66875 27.659375,21.55625 C27.4733173,21.5302885 27.2691198,21.5069896 27.0467825,21.4863536 L27.0278409,21.4846591 L27.35,21.425 C27.81875,21.33125 28.2440972,21.1897569 28.6260417,21.0005208 L28.85,20.88125 C29.2875,20.63125 29.63125,20.28125 29.88125,19.83125 C30.13125,19.38125 30.25625,18.8125 30.25625,18.125 C30.25625,17.0875 29.990625,16.26875 29.459375,15.66875 C28.928125,15.06875 28.209375,14.640625 27.303125,14.384375 C26.5101563,14.1601563 25.6286621,14.0340332 24.6586426,14.0060059 L24.2375,14 Z M24.2375,17.75 C24.6125,17.75 24.928125,17.809375 25.184375,17.928125 C25.440625,18.046875 25.56875,18.26875 25.56875,18.59375 C25.56875,18.94375 25.440625,19.18125 25.184375,19.30625 C24.928125,19.43125 24.6125,19.49375 24.2375,19.49375 L14.43125,19.49375 L14.43125,17.75 L24.2375,17.75 Z" id="Combined-Shape"></path>
            </g>
            <path d="M49.008,21 L49.008,17.176 L53.024,17.176 C53.696,17.176 54.2106667,17.2186667 54.568,17.304 C54.9253333,17.3893333 55.1733333,17.5413333 55.312,17.76 C55.4506667,17.9786667 55.52,18.2853333 55.52,18.68 L55.52,18.68 L55.52,21 L57.648,21 L57.648,18.536 C57.648,17.96 57.528,17.5253333 57.288,17.232 C57.048,16.9386667 56.688,16.736 56.208,16.624 C56.0022857,16.576 55.7720816,16.5373061 55.5173878,16.5079184 L55.274,16.484 L55.555,16.4285 L55.555,16.4285 L55.856,16.352 C56.2506667,16.24 56.6,16.0773333 56.904,15.864 C57.208,15.6506667 57.4453333,15.3733333 57.616,15.032 C57.7866667,14.6906667 57.872,14.2746667 57.872,13.784 C57.872,13.0586667 57.7066667,12.464 57.376,12 C57.0453333,11.536 56.584,11.1946667 55.992,10.976 C55.4,10.7573333 54.704,10.648 53.904,10.648 L53.904,10.648 L46.88,10.648 L46.88,21 L49.008,21 Z M53.904,15.512 L49.008,15.512 L49.008,12.472 L53.904,12.472 C54.5013333,12.472 54.9573333,12.5946667 55.272,12.84 C55.5866667,13.0853333 55.744,13.4426667 55.744,13.912 C55.744,14.4026667 55.5866667,14.792 55.272,15.08 C54.9573333,15.368 54.5013333,15.512 53.904,15.512 L53.904,15.512 Z M64.608,21.192 C65.5146667,21.192 66.2826667,21.0693333 66.912,20.824 C67.5413333,20.5786667 68.04,20.2426667 68.408,19.816 C68.776,19.3893333 69.0026667,18.904 69.088,18.36 L69.088,18.36 L67.072,18.36 C66.944,18.7226667 66.6586667,19.0186667 66.216,19.248 C65.7733333,19.4773333 65.2213333,19.592 64.56,19.592 C63.9626667,19.592 63.448,19.496 63.016,19.304 C62.584,19.112 62.2426667,18.8506667 61.992,18.52 C61.7413333,18.1893333 61.5893333,17.8213333 61.536,17.416 L61.536,17.416 L69.12,17.416 C69.1733333,16.3813333 69.032,15.5306667 68.696,14.864 C68.36,14.1973333 67.8453333,13.6986667 67.152,13.368 C66.4586667,13.0373333 65.5893333,12.872 64.544,12.872 C63.52,12.872 62.6266667,13.0373333 61.864,13.368 C61.1013333,13.6986667 60.5066667,14.176 60.08,14.8 C59.6533333,15.424 59.44,16.1733333 59.44,17.048 C59.44,17.9226667 59.6586667,18.6693333 60.096,19.288 C60.5333333,19.9066667 61.1413333,20.3786667 61.92,20.704 C62.6986667,21.0293333 63.5946667,21.192 64.608,21.192 Z M67.056,16.2 L61.648,16.2 C61.7866667,15.7093333 62.096,15.296 62.576,14.96 C63.056,14.624 63.68,14.456 64.448,14.456 C65.2266667,14.456 65.8426667,14.6133333 66.296,14.928 C66.7493333,15.2426667 67.0026667,15.6666667 67.056,16.2 L67.056,16.2 Z M74.464,21.192 C75.2213333,21.192 75.872,21.0986667 76.416,20.912 C76.96,20.7253333 77.3786667,20.456 77.672,20.104 C77.9653333,19.752 78.112,19.32 78.112,18.808 C78.112,18.392 78.024,18.048 77.848,17.776 C77.672,17.504 77.4346667,17.2853333 77.136,17.12 C76.8373333,16.9546667 76.4986667,16.8186667 76.12,16.712 C75.7413333,16.6053333 75.344,16.5093333 74.928,16.424 C74.4373333,16.3386667 74.0293333,16.2586667 73.704,16.184 C73.3786667,16.1093333 73.1333333,16.0106667 72.968,15.888 C72.8026667,15.7653333 72.72,15.592 72.72,15.368 C72.72,15.0906667 72.8533333,14.872 73.12,14.712 C73.3866667,14.552 73.7813333,14.472 74.304,14.472 C74.8373333,14.472 75.232,14.56 75.488,14.736 C75.744,14.912 75.9146667,15.1973333 76,15.592 L76,15.592 L77.84,15.592 C77.84,15.0586667 77.7093333,14.5866667 77.448,14.176 C77.1866667,13.7653333 76.7946667,13.4453333 76.272,13.216 C75.7493333,12.9866667 75.0933333,12.872 74.304,12.872 C73.7813333,12.872 73.2933333,12.9253333 72.84,13.032 C72.3866667,13.1386667 71.992,13.2933333 71.656,13.496 C71.32,13.6986667 71.0586667,13.9493333 70.872,14.248 C70.6853333,14.5466667 70.592,14.888 70.592,15.272 C70.592,15.6666667 70.6853333,16 70.872,16.272 C71.0586667,16.544 71.312,16.768 71.632,16.944 C71.952,17.12 72.32,17.2613333 72.736,17.368 C73.152,17.4746667 73.584,17.5653333 74.032,17.64 C74.48,17.704 74.848,17.7733333 75.136,17.848 C75.424,17.9226667 75.6373333,18.0213333 75.776,18.144 C75.9146667,18.2666667 75.984,18.44 75.984,18.664 C75.984,18.8453333 75.9413333,19.008 75.856,19.152 C75.7706667,19.296 75.616,19.4053333 75.392,19.48 C75.168,19.5546667 74.8533333,19.592 74.448,19.592 C73.8506667,19.592 73.368,19.4773333 73,19.248 C72.632,19.0186667 72.3893333,18.7226667 72.272,18.36 L72.272,18.36 L70.352,18.36 C70.3306667,18.5093333 70.352,18.7013333 70.416,18.936 C70.48,19.1706667 70.6,19.4186667 70.776,19.68 C70.952,19.9413333 71.2,20.1866667 71.52,20.416 C71.84,20.6453333 72.2426667,20.832 72.728,20.976 C73.2133333,21.12 73.792,21.192 74.464,21.192 Z M84.384,21.192 C85.3866667,21.192 86.264,21.032 87.016,20.712 C87.768,20.392 88.3573333,19.9253333 88.784,19.312 C89.2106667,18.6986667 89.424,17.944 89.424,17.048 C89.424,16.152 89.2106667,15.392 88.784,14.768 C88.3573333,14.144 87.768,13.672 87.016,13.352 C86.264,13.032 85.3866667,12.872 84.384,12.872 C83.3813333,12.872 82.4986667,13.032 81.736,13.352 C80.9733333,13.672 80.3786667,14.144 79.952,14.768 C79.5253333,15.392 79.312,16.152 79.312,17.048 C79.312,17.944 79.5253333,18.6986667 79.952,19.312 C80.3786667,19.9253333 80.9733333,20.392 81.736,20.712 C82.4986667,21.032 83.3813333,21.192 84.384,21.192 Z M84.384,19.592 C83.8186667,19.592 83.312,19.4933333 82.864,19.296 C82.416,19.0986667 82.064,18.8106667 81.808,18.432 C81.552,18.0533333 81.424,17.592 81.424,17.048 C81.424,16.4933333 81.5546667,16.024 81.816,15.64 C82.0773333,15.256 82.432,14.9626667 82.88,14.76 C83.328,14.5573333 83.8293333,14.456 84.384,14.456 C84.9493333,14.456 85.4506667,14.5573333 85.888,14.76 C86.3253333,14.9626667 86.672,15.2586667 86.928,15.648 C87.184,16.0373333 87.312,16.504 87.312,17.048 C87.312,17.592 87.184,18.0533333 86.928,18.432 C86.672,18.8106667 86.3226667,19.0986667 85.88,19.296 C85.4373333,19.4933333 84.9386667,19.592 84.384,19.592 Z M94.512,21.192 C95.0666667,21.192 95.5466667,21.0986667 95.952,20.912 C96.3573333,20.7253333 96.6986667,20.4853333 96.976,20.192 C97.2533333,19.8986667 97.48,19.592 97.656,19.272 C97.832,18.952 97.9626667,18.6506667 98.048,18.368 L98.048,18.368 L98.08,18.258 L98.08,21 L100.16,21 L100.16,13.048 L98.08,13.048 L98.08,17.48 L98.03712,17.58048 C97.9722667,17.7178667 97.8941867,17.8578133 97.80288,18.00032 L97.656,18.216 C97.3946667,18.5786667 97.056,18.8853333 96.64,19.136 C96.224,19.3866667 95.728,19.512 95.152,19.512 C94.7146667,19.512 94.336,19.4533333 94.016,19.336 C93.696,19.2186667 93.4533333,19.0133333 93.288,18.72 C93.1226667,18.4266667 93.04,18.024 93.04,17.512 L93.04,17.512 L93.04,13.048 L90.96,13.048 L90.96,17.864 C90.96,18.5146667 91.0613333,19.0533333 91.264,19.48 C91.4666667,19.9066667 91.7386667,20.2453333 92.08,20.496 C92.4213333,20.7466667 92.8026667,20.9253333 93.224,21.032 C93.6453333,21.1386667 94.0746667,21.192 94.512,21.192 Z M104.128,13.048 L102.048,13.048 L102.048,21 L104.128,21 L104.128,16.638 L104.1824,16.52768 C104.250667,16.4005333 104.331733,16.27168 104.4256,16.14112 L104.576,15.944 C104.842667,15.6133333 105.194667,15.3333333 105.632,15.104 C106.069333,14.8746667 106.586667,14.76 107.184,14.76 L107.184,14.76 L107.184,12.872 C106.714667,12.872 106.304,12.9573333 105.952,13.128 C105.6,13.2986667 105.301333,13.52 105.056,13.792 C104.810667,14.064 104.613333,14.3466667 104.464,14.64 C104.314667,14.9333333 104.202667,15.2053333 104.128,15.456 L104.128,15.456 L104.128,13.048 Z M113.2,21.192 C114.138667,21.192 114.949333,21.0613333 115.632,20.8 C116.314667,20.5386667 116.850667,20.1573333 117.24,19.656 C117.629333,19.1546667 117.850667,18.5573333 117.904,17.864 L117.904,17.864 L116,17.864 C115.829333,18.4186667 115.506667,18.8453333 115.032,19.144 C114.557333,19.4426667 113.946667,19.592 113.2,19.592 C112.645333,19.592 112.138667,19.4986667 111.68,19.312 C111.221333,19.1253333 110.858667,18.8426667 110.592,18.464 C110.325333,18.0853333 110.192,17.6133333 110.192,17.048 C110.192,16.472 110.328,15.9946667 110.6,15.616 C110.872,15.2373333 111.234667,14.952 111.688,14.76 C112.141333,14.568 112.645333,14.472 113.2,14.472 C113.893333,14.472 114.485333,14.6213333 114.976,14.92 C115.466667,15.2186667 115.802667,15.6346667 115.984,16.168 L115.984,16.168 L117.888,16.168 C117.824,15.4746667 117.597333,14.8826667 117.208,14.392 C116.818667,13.9013333 116.288,13.5253333 115.616,13.264 C114.944,13.0026667 114.138667,12.872 113.2,12.872 C112.218667,12.872 111.341333,13.032 110.568,13.352 C109.794667,13.672 109.186667,14.1413333 108.744,14.76 C108.301333,15.3786667 108.08,16.1413333 108.08,17.048 C108.08,17.9546667 108.301333,18.7146667 108.744,19.328 C109.186667,19.9413333 109.794667,20.4053333 110.568,20.72 C111.341333,21.0346667 112.218667,21.192 113.2,21.192 Z M124.224,21.192 C125.130667,21.192 125.898667,21.0693333 126.528,20.824 C127.157333,20.5786667 127.656,20.2426667 128.024,19.816 C128.392,19.3893333 128.618667,18.904 128.704,18.36 L128.704,18.36 L126.688,18.36 C126.56,18.7226667 126.274667,19.0186667 125.832,19.248 C125.389333,19.4773333 124.837333,19.592 124.176,19.592 C123.578667,19.592 123.064,19.496 122.632,19.304 C122.2,19.112 121.858667,18.8506667 121.608,18.52 C121.357333,18.1893333 121.205333,17.8213333 121.152,17.416 L121.152,17.416 L128.736,17.416 C128.789333,16.3813333 128.648,15.5306667 128.312,14.864 C127.976,14.1973333 127.461333,13.6986667 126.768,13.368 C126.074667,13.0373333 125.205333,12.872 124.16,12.872 C123.136,12.872 122.242667,13.0373333 121.48,13.368 C120.717333,13.6986667 120.122667,14.176 119.696,14.8 C119.269333,15.424 119.056,16.1733333 119.056,17.048 C119.056,17.9226667 119.274667,18.6693333 119.712,19.288 C120.149333,19.9066667 120.757333,20.3786667 121.536,20.704 C122.314667,21.0293333 123.210667,21.192 124.224,21.192 Z M126.672,16.2 L121.264,16.2 C121.402667,15.7093333 121.712,15.296 122.192,14.96 C122.672,14.624 123.296,14.456 124.064,14.456 C124.842667,14.456 125.458667,14.6133333 125.912,14.928 C126.365333,15.2426667 126.618667,15.6666667 126.672,16.2 L126.672,16.2 Z M134.08,21.192 C134.837333,21.192 135.488,21.0986667 136.032,20.912 C136.576,20.7253333 136.994667,20.456 137.288,20.104 C137.581333,19.752 137.728,19.32 137.728,18.808 C137.728,18.392 137.64,18.048 137.464,17.776 C137.288,17.504 137.050667,17.2853333 136.752,17.12 C136.453333,16.9546667 136.114667,16.8186667 135.736,16.712 C135.357333,16.6053333 134.96,16.5093333 134.544,16.424 C134.053333,16.3386667 133.645333,16.2586667 133.32,16.184 C132.994667,16.1093333 132.749333,16.0106667 132.584,15.888 C132.418667,15.7653333 132.336,15.592 132.336,15.368 C132.336,15.0906667 132.469333,14.872 132.736,14.712 C133.002667,14.552 133.397333,14.472 133.92,14.472 C134.453333,14.472 134.848,14.56 135.104,14.736 C135.36,14.912 135.530667,15.1973333 135.616,15.592 L135.616,15.592 L137.456,15.592 C137.456,15.0586667 137.325333,14.5866667 137.064,14.176 C136.802667,13.7653333 136.410667,13.4453333 135.888,13.216 C135.365333,12.9866667 134.709333,12.872 133.92,12.872 C133.397333,12.872 132.909333,12.9253333 132.456,13.032 C132.002667,13.1386667 131.608,13.2933333 131.272,13.496 C130.936,13.6986667 130.674667,13.9493333 130.488,14.248 C130.301333,14.5466667 130.208,14.888 130.208,15.272 C130.208,15.6666667 130.301333,16 130.488,16.272 C130.674667,16.544 130.928,16.768 131.248,16.944 C131.568,17.12 131.936,17.2613333 132.352,17.368 C132.768,17.4746667 133.2,17.5653333 133.648,17.64 C134.096,17.704 134.464,17.7733333 134.752,17.848 C135.04,17.9226667 135.253333,18.0213333 135.392,18.144 C135.530667,18.2666667 135.6,18.44 135.6,18.664 C135.6,18.8453333 135.557333,19.008 135.472,19.152 C135.386667,19.296 135.232,19.4053333 135.008,19.48 C134.784,19.5546667 134.469333,19.592 134.064,19.592 C133.466667,19.592 132.984,19.4773333 132.616,19.248 C132.248,19.0186667 132.005333,18.7226667 131.888,18.36 L131.888,18.36 L129.968,18.36 C129.946667,18.5093333 129.968,18.7013333 130.032,18.936 C130.096,19.1706667 130.216,19.4186667 130.392,19.68 C130.568,19.9413333 130.816,20.1866667 131.136,20.416 C131.456,20.6453333 131.858667,20.832 132.344,20.976 C132.829333,21.12 133.408,21.192 134.08,21.192 Z" id="Resources"></path>
            <path d="M49.325,30.1 C49.7583333,30.1 50.1516667,29.99 50.505,29.77 C50.8583333,29.55 51.1383333,29.245 51.345,28.855 C51.5516667,28.465 51.655,28.0166667 51.655,27.51 C51.655,27.0033333 51.5533333,26.555 51.35,26.165 C51.1466667,25.775 50.87,25.4683333 50.52,25.245 C50.17,25.0216667 49.7716667,24.91 49.325,24.91 C48.925,24.91 48.5933333,24.9766667 48.33,25.11 C48.0666667,25.2433333 47.8616667,25.43 47.715,25.67 C47.5683333,25.91 47.4633333,26.1866667 47.4,26.5 L47.415,26.436 L47.415,23.01 L46.445,23.01 L46.445,30 L47.335,30 C47.3483333,29.8533333 47.365,29.6716667 47.385,29.455 C47.405,29.2383333 47.415,29.0566667 47.415,28.91 L47.415,28.91 L47.415,28.4 L47.4628125,28.581875 C47.5065625,28.7277083 47.5607292,28.869375 47.6253125,29.006875 L47.73,29.21 C47.88,29.4766667 48.085,29.6916667 48.345,29.855 C48.605,30.0183333 48.9316667,30.1 49.325,30.1 Z M49.045,29.26 C48.6916667,29.26 48.3933333,29.1833333 48.15,29.03 C47.9066667,28.8766667 47.7233333,28.6666667 47.6,28.4 C47.4766667,28.1333333 47.415,27.8366667 47.415,27.51 C47.415,27.1566667 47.4766667,26.8483333 47.6,26.585 C47.7233333,26.3216667 47.9083333,26.1166667 48.155,25.97 C48.4016667,25.8233333 48.6983333,25.75 49.045,25.75 C49.565,25.75 49.9666667,25.915 50.25,26.245 C50.5333333,26.575 50.675,26.9966667 50.675,27.51 C50.675,27.8566667 50.605,28.1616667 50.465,28.425 C50.325,28.6883333 50.135,28.8933333 49.895,29.04 C49.655,29.1866667 49.3716667,29.26 49.045,29.26 Z M54.315,32 L57.325,25.01 L56.295,25.01 L54.763,28.843 L53.235,25.01 L52.195,25.01 L54.277,29.933 L53.285,32 L54.315,32 Z M62.415,30.1 C62.8083333,30.1 63.135,30.0183333 63.395,29.855 C63.655,29.6916667 63.86,29.4766667 64.01,29.21 C64.16,28.9433333 64.2683333,28.66 64.335,28.36 L64.325,28.4 L64.325,28.91 C64.325,28.9988889 64.327963,29.0966667 64.3338889,29.2033333 L64.345,29.37 C64.3583333,29.5433333 64.3716667,29.6916667 64.385,29.815 C64.3983333,29.9383333 64.405,30 64.405,30 L64.405,30 L65.295,30 L65.295,25.01 L64.325,25.01 L64.325,26.438 L64.265,26.2 C64.1678571,25.8628571 64.0094898,25.5844898 63.789898,25.364898 L63.675,25.26 C63.395,25.0266667 63.005,24.91 62.505,24.91 C62.045,24.91 61.6333333,25.0216667 61.27,25.245 C60.9066667,25.4683333 60.6183333,25.775 60.405,26.165 C60.1916667,26.555 60.085,27.0033333 60.085,27.51 C60.085,28.0166667 60.19,28.465 60.4,28.855 C60.61,29.245 60.8916667,29.55 61.245,29.77 C61.5983333,29.99 61.9883333,30.1 62.415,30.1 Z M62.685,29.26 C62.3716667,29.26 62.0916667,29.1866667 61.845,29.04 C61.5983333,28.8933333 61.405,28.6883333 61.265,28.425 C61.125,28.1616667 61.055,27.8566667 61.055,27.51 C61.055,26.9966667 61.1983333,26.575 61.485,26.245 C61.7716667,25.915 62.1716667,25.75 62.685,25.75 C63.0383333,25.75 63.3366667,25.8233333 63.58,25.97 C63.8233333,26.1166667 64.0083333,26.3216667 64.135,26.585 C64.2616667,26.8483333 64.325,27.1566667 64.325,27.51 C64.325,27.8366667 64.2633333,28.1333333 64.14,28.4 C64.0166667,28.6666667 63.8333333,28.8766667 63.59,29.03 C63.3466667,29.1833333 63.045,29.26 62.685,29.26 Z M68.215,32 L71.225,25.01 L70.195,25.01 L68.663,28.843 L67.135,25.01 L66.095,25.01 L68.177,29.933 L67.185,32 L68.215,32 Z M76.255,30 L76.255,29.17 L73.14,29.17 L76.215,25.84 L76.215,25.01 L71.975,25.01 L71.975,25.84 L75.085,25.84 L71.975,29.17 L71.975,30 L76.255,30 Z M79.505,30.1 C79.8983333,30.1 80.225,30.0183333 80.485,29.855 C80.745,29.6916667 80.95,29.4766667 81.1,29.21 C81.25,28.9433333 81.3583333,28.66 81.425,28.36 L81.415,28.4 L81.415,28.91 C81.415,29.02 81.4196875,29.1496875 81.4290625,29.2990625 L81.44,29.455 C81.4566667,29.6716667 81.475,29.8533333 81.495,30 L81.495,30 L82.385,30 L82.385,23.01 L81.415,23.01 L81.415,26.438 L81.3868,26.3164 C81.3384,26.1372 81.2744,25.9712 81.1948,25.8184 L81.11,25.67 C80.96,25.43 80.755,25.2433333 80.495,25.11 C80.235,24.9766667 79.905,24.91 79.505,24.91 C79.0516667,24.91 78.65,25.0216667 78.3,25.245 C77.95,25.4683333 77.675,25.775 77.475,26.165 C77.275,26.555 77.175,27.0033333 77.175,27.51 C77.175,28.0166667 77.2783333,28.465 77.485,28.855 C77.6916667,29.245 77.9716667,29.55 78.325,29.77 C78.6783333,29.99 79.0716667,30.1 79.505,30.1 Z M79.775,29.26 C79.4616667,29.26 79.1816667,29.1866667 78.935,29.04 C78.6883333,28.8933333 78.495,28.6883333 78.355,28.425 C78.215,28.1616667 78.145,27.8566667 78.145,27.51 C78.145,26.9966667 78.2883333,26.575 78.575,26.245 C78.8616667,25.915 79.2616667,25.75 79.775,25.75 C80.1283333,25.75 80.4266667,25.8233333 80.67,25.97 C80.9133333,26.1166667 81.0983333,26.3216667 81.225,26.585 C81.3516667,26.8483333 81.415,27.1566667 81.415,27.51 C81.415,27.8366667 81.3533333,28.1333333 81.23,28.4 C81.1066667,28.6666667 80.9233333,28.8766667 80.68,29.03 C80.4366667,29.1833333 80.135,29.26 79.775,29.26 Z M85.015,30 L85.015,28.97 L83.815,28.97 L83.815,30 L85.015,30 Z M88.715,30.11 C89.1616667,30.11 89.565,30.03 89.925,29.87 C90.285,29.71 90.5783333,29.4783333 90.805,29.175 C91.0316667,28.8716667 91.165,28.51 91.205,28.09 L91.205,28.09 L90.325,28.09 C90.2183333,28.4633333 90.03,28.7533333 89.76,28.96 C89.49,29.1666667 89.1416667,29.27 88.715,29.27 C88.4016667,29.27 88.1133333,29.2033333 87.85,29.07 C87.5866667,28.9366667 87.3766667,28.7383333 87.22,28.475 C87.0633333,28.2116667 86.985,27.8933333 86.985,27.52 C86.985,27.1333333 87.065,26.8083333 87.225,26.545 C87.385,26.2816667 87.5966667,26.0816667 87.86,25.945 C88.1233333,25.8083333 88.4083333,25.74 88.715,25.74 C89.095,25.74 89.4283333,25.8433333 89.715,26.05 C90.0016667,26.2566667 90.2016667,26.5433333 90.315,26.91 L90.315,26.91 L91.205,26.91 C91.1516667,26.49 91.0133333,26.1316667 90.79,25.835 C90.5666667,25.5383333 90.2766667,25.31 89.92,25.15 C89.5633333,24.99 89.1616667,24.91 88.715,24.91 C88.2216667,24.91 87.77,25.0133333 87.36,25.22 C86.95,25.4266667 86.6233333,25.725 86.38,26.115 C86.1366667,26.505 86.015,26.9733333 86.015,27.52 C86.015,28.06 86.1366667,28.525 86.38,28.915 C86.6233333,29.305 86.95,29.6016667 87.36,29.805 C87.77,30.0083333 88.2216667,30.11 88.715,30.11 Z M94.635,30.11 C95.1283333,30.11 95.5766667,30.0066667 95.98,29.8 C96.3833333,29.5933333 96.705,29.2966667 96.945,28.91 C97.185,28.5233333 97.305,28.06 97.305,27.52 C97.305,26.9733333 97.185,26.505 96.945,26.115 C96.705,25.725 96.3833333,25.4266667 95.98,25.22 C95.5766667,25.0133333 95.1283333,24.91 94.635,24.91 C94.1416667,24.91 93.69,25.0133333 93.28,25.22 C92.87,25.4266667 92.545,25.725 92.305,26.115 C92.065,26.505 91.945,26.9733333 91.945,27.52 C91.945,28.06 92.065,28.5233333 92.305,28.91 C92.545,29.2966667 92.87,29.5933333 93.28,29.8 C93.69,30.0066667 94.1416667,30.11 94.635,30.11 Z M94.635,29.27 C94.3283333,29.27 94.0433333,29.2033333 93.78,29.07 C93.5166667,28.9366667 93.3066667,28.7383333 93.15,28.475 C92.9933333,28.2116667 92.915,27.8933333 92.915,27.52 C92.915,27.1333333 92.995,26.8083333 93.155,26.545 C93.315,26.2816667 93.525,26.0816667 93.785,25.945 C94.045,25.8083333 94.3283333,25.74 94.635,25.74 C94.935,25.74 95.2133333,25.81 95.47,25.95 C95.7266667,26.09 95.9333333,26.2916667 96.09,26.555 C96.2466667,26.8183333 96.325,27.14 96.325,27.52 C96.325,27.8933333 96.2466667,28.2116667 96.09,28.475 C95.9333333,28.7383333 95.7266667,28.9366667 95.47,29.07 C95.2133333,29.2033333 94.935,29.27 94.635,29.27 Z M99.265,30 L99.265,27.025 L99.2746,26.9896 C99.3076667,26.884 99.3506,26.7829333 99.4034,26.6864 L99.49,26.545 C99.6466667,26.315 99.85,26.1316667 100.1,25.995 C100.35,25.8583333 100.625,25.79 100.925,25.79 C101.318333,25.79 101.608333,25.8866667 101.795,26.08 C101.981667,26.2733333 102.075,26.57 102.075,26.97 L102.075,26.97 L102.075,30 L103.045,30 L103.045,26.773 L103.087,26.6864 L103.087,26.6864 L103.175,26.545 C103.335,26.315 103.538333,26.1316667 103.785,25.995 C104.031667,25.8583333 104.305,25.79 104.605,25.79 C104.998333,25.79 105.29,25.8866667 105.48,26.08 C105.67,26.2733333 105.765,26.57 105.765,26.97 L105.765,26.97 L105.765,30 L106.725,30 L106.725,26.76 C106.725,26.46 106.68,26.195 106.59,25.965 C106.5,25.735 106.375,25.5416667 106.215,25.385 C106.055,25.2283333 105.86,25.11 105.63,25.03 C105.4,24.95 105.145,24.91 104.865,24.91 C104.598333,24.91 104.351667,24.9566667 104.125,25.05 C103.898333,25.1433333 103.698333,25.2733333 103.525,25.44 C103.351667,25.6066667 103.21,25.8033333 103.1,26.03 C103.0725,26.0866667 103.047396,26.144375 103.024687,26.203125 L102.999,26.277 L102.9964,26.2578 C102.9856,26.2062 102.973,26.156 102.9586,26.1072 L102.91,25.965 C102.82,25.735 102.693333,25.5416667 102.53,25.385 C102.366667,25.2283333 102.171667,25.11 101.945,25.03 C101.718333,24.95 101.465,24.91 101.185,24.91 C100.911667,24.91 100.661667,24.9566667 100.435,25.05 C100.208333,25.1433333 100.008333,25.275 99.835,25.445 C99.6616667,25.615 99.52,25.8116667 99.41,26.035 C99.355,26.1466667 99.3095833,26.26375 99.27375,26.38625 L99.265,26.42 L99.265,25.01 L98.295,25.01 L98.295,30 L99.265,30 Z" id="byayzd.com" opacity="0.401782227"></path>
        </g>
    </g>
</svg>