<?xml version="1.0" encoding="UTF-8"?>
<svg width="18px" height="21px" viewBox="0 0 18 21" version="1.1" xmlns="http://www.w3.org/2000/svg" xmlns:xlink="http://www.w3.org/1999/xlink">
    <title>icon-tiktok</title>
    <g id="Page-1" stroke="none" stroke-width="1" fill="none" fill-rule="evenodd">
        <path d="M17.9903342,5.12982102 C16.8192922,5.12982102 15.7388237,4.74187831 14.8711625,4.08742536 C13.8760574,3.33718903 13.1610886,2.23668212 12.9086052,0.968253718 C12.8460855,0.654853715 12.8124211,0.33143453 12.809215,0 L9.46401057,0 L9.46401057,9.14069983 L9.4600029,14.1474853 C9.4600029,15.486048 8.5883341,16.6210209 7.38002078,17.0201851 C7.02934943,17.1360068 6.65062436,17.1909119 6.25626937,17.1692705 C5.75290568,17.1416176 5.28120261,16.9897268 4.87121769,16.7444572 C3.99874735,16.2226582 3.40721486,15.2760459 3.39118417,14.1931728 C3.36593584,12.5007326 4.73415529,11.1208909 6.42539315,11.1208909 C6.75923229,11.1208909 7.0798461,11.1753952 7.38002078,11.2743848 L7.38002078,8.77600162 L7.38002078,7.87788217 C7.06341464,7.8309924 6.74119776,7.8065456 6.41537397,7.8065456 C4.56422996,7.8065456 2.83291537,8.57601875 1.59534605,9.96227273 C0.659955247,11.0098784 0.0988810726,12.3464372 0.0123153429,13.7479203 C-0.101101794,15.5890452 0.572587983,17.3391958 1.87908927,18.630468 C2.07105679,18.8200309 2.27264273,18.9959677 2.48344631,19.1582784 C3.60359083,20.0203288 4.97301258,20.4876235 6.41537397,20.4876235 C6.74119776,20.4876235 7.06341464,20.4635774 7.38002078,20.4166877 C8.72740034,20.2171056 9.9705804,19.6003247 10.9516587,18.630468 C12.1571666,17.4389869 12.8232418,15.8571585 12.8304556,14.1735352 L12.8132226,6.69682104 C13.3883237,7.1404704 14.0171275,7.50757322 14.6920196,7.79251875 C15.741629,8.23536658 16.8545598,8.45979625 18,8.45939548 L18,6.03034507 L18,5.12901949 C18.0007541,5.12982102 17.9911357,5.12982102 17.9903342,5.12982102 L17.9903342,5.12982102 Z" id="icon-tiktok" fill="#FFFFFF" fill-rule="nonzero"></path>
    </g>
</svg>