<svg width="728" height="177" viewBox="0 0 728 177" fill="none" xmlns="http://www.w3.org/2000/svg">
<path d="M200 60.7916H219.978V44H200V60.7916ZM219.733 67.4102H200.123V132.003H219.733V67.4102Z" fill="#ffffff"/>
<path d="M228.41 99.7677C228.41 119.623 244.711 133.351 267.263 133.351C286.506 133.351 298.885 122.81 302.44 112.269L285.525 104.793C283.319 111.657 276.701 117.417 267.141 117.417C255.864 117.417 247.53 110.676 247.53 99.7677C247.53 88.7367 255.864 82.1181 267.141 82.1181C276.701 82.1181 283.319 87.8788 285.525 94.6199L302.44 87.3885C299.008 76.7252 286.506 66.0619 267.263 66.0619C244.711 66.0619 228.41 79.7894 228.41 99.7677Z" fill="#ffffff"/>
<path d="M351.974 135.067L384.699 67.4102H363.985L343.639 111.289L323.171 67.4102H301.231L332.486 130.164L331.873 132.003C329.544 137.763 325.132 139.112 320.229 139.112C316.92 139.112 313.733 138.131 310.914 136.66L307.605 152.104C310.669 153.452 317.042 154.8 322.313 154.8C337.021 154.8 344.987 149.407 351.974 135.067Z" fill="#ffffff"/>
<path d="M377.468 132.003H400.021V110.063H377.468V132.003Z" fill="#ffffff"/>
<path d="M409.548 111.044C409.548 126.855 421.192 132.983 435.777 132.983C444.847 132.983 452.937 131.145 458.452 129.061L454.898 113.495C450.608 114.966 445.95 116.192 440.925 116.192C432.713 116.192 428.791 113.618 428.791 106.631V83.5889H455.633V67.4102H428.791V49.5155H409.548V67.4102H394.84V83.5889H409.548V111.044Z" fill="#ffffff"/>
<path d="M499.7 66.0619C478.005 66.0619 461.214 79.4217 461.214 99.7677C461.214 120.114 478.005 133.351 499.7 133.351C521.394 133.351 538.308 120.114 538.308 99.7677C538.308 79.4217 521.394 66.0619 499.7 66.0619ZM499.7 117.417C489.036 117.417 480.334 111.044 480.334 99.7677C480.334 88.6142 489.036 82.1181 499.7 82.1181C510.485 82.1181 519.188 88.6142 519.188 99.7677C519.188 111.044 510.485 117.417 499.7 117.417Z" fill="#ffffff"/>
<path d="M582.528 66.0619C560.833 66.0619 544.042 79.4217 544.042 99.7677C544.042 120.114 560.833 133.351 582.528 133.351C604.222 133.351 621.136 120.114 621.136 99.7677C621.136 79.4217 604.222 66.0619 582.528 66.0619ZM582.528 117.417C571.864 117.417 563.162 111.044 563.162 99.7677C563.162 88.6142 571.864 82.1181 582.528 82.1181C593.314 82.1181 602.016 88.6142 602.016 99.7677C602.016 111.044 593.314 117.417 582.528 117.417Z" fill="#ffffff"/>
<path d="M649.314 44H629.703V132.003H649.314V44Z" fill="#ffffff"/>
<path d="M654.926 121.339C662.403 128.939 676.743 133.351 691.696 133.351C711.919 133.351 727.118 125.997 727.118 110.921C727.118 96.2133 712.655 93.3943 696.108 91.4332C682.136 89.8398 677.846 89.4721 677.846 85.9177C677.846 82.6084 682.258 80.5248 690.593 80.5248C700.643 80.5248 709.346 83.5889 715.229 88.9819L725.402 77.2155C718.906 70.9646 706.772 66.0619 691.573 66.0619C671.105 66.0619 658.48 74.8867 658.48 88.1239C658.48 101.974 671.35 105.038 686.793 106.999C701.256 108.715 707.384 108.715 707.384 113.005C707.384 117.05 701.992 118.765 693.167 118.765C682.136 118.765 671.963 115.334 664.241 108.225L654.926 121.339Z" fill="#ffffff"/>
<path d="M84.6183 29.4021C84.6183 31.8764 86.3667 32.8868 88.5032 31.6514L111.496 18.3524C113.633 17.117 113.633 15.0874 111.496 13.852L88.5032 0.527397C86.3667 -0.709763 84.6183 0.305909 84.6183 2.7767V29.4021Z" fill="#00CEFF"/>
<path d="M124.618 52.5622C124.618 55.033 126.367 56.0478 128.503 54.8106L151.496 41.4984C153.633 40.263 153.633 38.2334 151.496 36.998L128.503 23.6787C126.367 22.4433 124.618 23.4546 124.618 25.928V52.5622Z" fill="#00CEFF"/>
<path d="M123.885 72.6806C122.68 72.071 121.349 71.7534 120 71.7534C118.65 71.7534 117.32 72.071 116.115 72.6806L93.1219 85.9929C90.9854 87.2283 90.9854 89.2579 93.1219 90.4933L116.115 103.806C117.32 104.415 118.65 104.733 120 104.733C121.349 104.733 122.68 104.415 123.885 103.806L146.877 90.4933C149.014 89.2579 149.014 87.2283 146.877 85.9929L123.885 72.6806Z" fill="#00CEFF"/>
<path d="M114.239 114.737C114.914 115.909 115.305 117.223 115.381 118.574V145.2C115.381 147.674 113.633 148.684 111.496 147.448L88.5032 134.136C87.3744 133.395 86.4349 132.398 85.7601 131.226C85.0854 130.054 84.6943 128.74 84.6183 127.389V100.763C84.6183 98.2895 86.3667 97.2782 88.5032 98.5136L111.496 111.827C112.625 112.568 113.564 113.565 114.239 114.737Z" fill="#00CEFF"/>
<path d="M115.381 31.2843C115.381 28.8135 113.633 27.7987 111.496 29.0359L88.5032 42.3482C87.3744 43.0896 86.4349 44.0863 85.7601 45.2581C85.0854 46.4299 84.6943 47.7442 84.6183 49.0952V75.7215C84.6183 78.1923 86.3667 79.2071 88.5032 77.9708L111.496 64.6576C112.625 63.9163 113.564 62.9196 114.239 61.7477C114.914 60.5759 115.305 59.2616 115.381 57.9106V31.2843Z" fill="#00CEFF"/>
<path d="M124.618 123.922C124.618 121.449 126.367 120.438 128.503 121.674L151.496 134.978C153.633 136.213 153.633 138.243 151.496 139.478L128.503 152.798C126.367 154.034 124.618 153.019 124.618 150.548V123.922Z" fill="#00CEFF"/>
<path d="M160 51.7698C160 49.2955 158.252 48.2851 156.115 49.5205L133.121 62.8284C130.985 64.0682 130.985 66.0933 133.121 67.3287L156.115 80.6445C158.252 81.8817 160 80.866 160 78.3952V51.7698Z" fill="#00CEFF"/>
<path d="M156.115 95.8399C158.252 94.6045 160 95.6149 160 98.0892V124.715C160 127.185 158.252 128.201 156.115 126.964L133.121 113.651C130.985 112.415 130.985 110.386 133.121 109.15L156.115 95.8399Z" fill="#00CEFF"/>
<path d="M84.6183 147.082C84.6183 144.608 86.3667 143.598 88.5032 144.833L111.496 158.136C113.633 159.372 113.633 161.401 111.496 162.637L88.5032 175.957C86.3667 177.194 84.6183 176.179 84.6183 173.708V147.082Z" fill="#00CEFF"/>
<path d="M71.4969 31.6515C73.6333 32.8868 75.3809 31.8765 75.3809 29.4021V2.77674C75.3809 0.302417 73.6333 -0.706195 71.4969 0.5292L48.5032 13.8538C46.3667 15.0892 46.3667 17.1188 48.5032 18.3542L71.4969 31.6515Z" fill="#0075FF"/>
<path d="M71.4969 98.5137C73.6333 97.2774 75.3809 98.2922 75.3809 100.763V173.718C75.3809 176.193 73.6333 177.203 71.4969 175.968L48.5032 162.648C47.3742 161.906 46.4346 160.91 45.76 159.738C45.0853 158.566 44.6946 157.252 44.6191 155.9V118.574C44.6946 117.223 45.0854 115.908 45.7601 114.737C46.4347 113.565 47.3743 112.568 48.5032 111.827L71.4969 98.5137Z" fill="#0075FF"/>
<path d="M71.4967 77.9709C73.6332 79.2063 75.3808 78.195 75.3808 75.7216V49.0953C75.3052 47.7442 74.9144 46.4299 74.2398 45.258C73.5652 44.0861 72.6256 43.0894 71.4967 42.3482L39.2654 23.6867C38.0608 23.0772 36.7303 22.7596 35.3809 22.7596C34.0316 22.7596 32.7011 23.0772 31.4964 23.6867L8.50364 36.9999C6.36715 38.2352 6.36715 40.2648 8.50364 41.5002L71.4967 77.9709Z" fill="#0075FF"/>
<path d="M35.3814 123.922C35.3814 121.451 33.6329 120.437 31.4964 121.674L8.50364 134.986C6.36715 136.222 6.36715 138.251 8.50364 139.486L31.4964 152.806C33.6329 154.041 35.3814 153.03 35.3814 150.557V123.922Z" fill="#0075FF"/>
<path d="M39.9998 71.7528C41.3492 71.7528 42.6798 72.0706 43.8843 72.6807L66.8754 85.9912C69.0119 87.2266 69.0119 89.2562 66.8754 90.4916L3.88493 126.964C1.74844 128.201 0 127.185 0 124.715V98.0893C0.0758856 96.7381 0.466928 95.4237 1.14167 94.2517C1.81642 93.0797 2.75603 92.0828 3.88493 91.3413L36.1153 72.6807C37.3198 72.0706 38.6504 71.7528 39.9998 71.7528Z" fill="#0075FF"/>
<path d="M3.88493 49.5206C1.74844 48.2834 0 49.2956 0 51.7699V78.3962C0 80.867 1.74844 81.8818 3.88493 80.6446L26.8777 67.3288C29.0142 66.0934 29.0142 64.0638 26.8777 62.8284L3.88493 49.5206Z" fill="#0075FF"/>
</svg>
