<?xml version="1.0" encoding="UTF-8"?>
<svg width="440px" height="426px" viewBox="0 0 440 426" version="1.1" xmlns="http://www.w3.org/2000/svg" xmlns:xlink="http://www.w3.org/1999/xlink">
    <title>bg pattern</title>
    <defs>
        <linearGradient x1="10.5063164%" y1="-78947.8051%" x2="77.5163753%" y2="-78947.8051%" id="linearGradient-1">
            <stop stop-color="#000000" stop-opacity="0" offset="0%"></stop>
            <stop stop-color="#FFFFFF" offset="100%"></stop>
        </linearGradient>
    </defs>
    <g id="bg-pattern" stroke="none" stroke-width="1" fill="none" fill-rule="evenodd" opacity="0.355546301">
        <g id="Group-2" transform="translate(230.600000, 175.550000) scale(1, -1) translate(-230.600000, -175.550000) translate(-88.900000, -143.450000)">
            <g id="Group" opacity="0.548138787" transform="translate(0.187454, 81.495949)" stroke="#FFFFFF" stroke-linecap="square">
                <line x1="0.181756502" y1="396.442553" x2="637.056541" y2="396.442553" id="Line-Copy-21" opacity="0.202383961"></line>
                <line x1="0.181756502" y1="374.477814" x2="637.056541" y2="374.477814" id="Line-Copy-20" opacity="0.4"></line>
                <line x1="0.181756502" y1="352.513076" x2="637.056541" y2="352.513076" id="Line-Copy-19" opacity="0.202383961"></line>
                <line x1="0.181756502" y1="330.548337" x2="637.056541" y2="330.548337" id="Line-Copy-18" opacity="0.202383961"></line>
                <line x1="0.181756502" y1="308.583598" x2="637.056541" y2="308.583598" id="Line-Copy-17" opacity="0.202383961"></line>
                <line x1="0.181756502" y1="286.618859" x2="637.056541" y2="286.618859" id="Line-Copy-16" opacity="0.4"></line>
                <line x1="0.181756502" y1="264.654121" x2="637.056541" y2="264.654121" id="Line-Copy-15" opacity="0.202383961"></line>
                <line x1="0.181756502" y1="242.689382" x2="637.056541" y2="242.689382" id="Line-Copy-14" opacity="0.202383961"></line>
                <line x1="0.181756502" y1="220.724643" x2="637.056541" y2="220.724643" id="Line-Copy-13" opacity="0.202383961"></line>
                <line x1="0.181756502" y1="198.759904" x2="637.056541" y2="198.759904" id="Line-Copy-12" opacity="0.17384105"></line>
                <line x1="0.181756502" y1="176.795166" x2="637.056541" y2="176.795166" id="Line-Copy-11" opacity="0.172384"></line>
                <line x1="0.181756502" y1="154.830427" x2="637.056541" y2="154.830427" id="Line-Copy-10" opacity="0.172384"></line>
                <line x1="0.181756502" y1="132.865688" x2="637.056541" y2="132.865688" id="Line-Copy-9" opacity="0.152384"></line>
                <line x1="0.181756502" y1="110.900949" x2="637.056541" y2="110.900949" id="Line-Copy-8" opacity="0.136098"></line>
                <line x1="0.181756502" y1="88.9362107" x2="637.056541" y2="88.9362107" id="Line-Copy-7" opacity="0.106669"></line>
                <line x1="0.181756502" y1="66.9714719" x2="637.056541" y2="66.9714719" id="Line-Copy-6" opacity="0.088433"></line>
                <line x1="0.181756502" y1="45.0067332" x2="637.056541" y2="45.0067332" id="Line-Copy-5" opacity="0.075601"></line>
                <line x1="0.181756502" y1="23.0419945" x2="637.056541" y2="23.0419945" id="Line-Copy-4" opacity="0.0281386432"></line>
                <line x1="0.181756502" y1="1.07725571" x2="637.056541" y2="1.07725571" id="Line-Copy-3" opacity="0.0340217142"></line>
            </g>
            <g id="Group-Copy" transform="translate(309.473382, 319.000000) rotate(90.000000) translate(-309.473382, -319.000000) translate(-9.526618, 11.000000)" opacity="0.4" stroke="url(#linearGradient-1)" stroke-linecap="square">
                <path d="M0.181756502,615.195724 L637.056541,615.195724 M0.181756502,593.230985 L637.056541,593.230985 M0.181756502,571.266247 L637.056541,571.266247 M0.181756502,549.301508 L637.056541,549.301508 M0.181756502,527.336769 L637.056541,527.336769 M0.181756502,505.372031 L637.056541,505.372031 M0.181756502,483.407292 L637.056541,483.407292 M0.181756502,461.442553 L637.056541,461.442553 M0.181756502,439.477814 L637.056541,439.477814 M0.181756502,417.513076 L637.056541,417.513076 M0.181756502,395.548337 L637.056541,395.548337 M0.181756502,373.583598 L637.056541,373.583598 M0.181756502,351.618859 L637.056541,351.618859 M0.181756502,329.654121 L637.056541,329.654121 M0.181756502,307.689382 L637.056541,307.689382 M0.181756502,285.724643 L637.056541,285.724643 M0.181756502,263.759904 L637.056541,263.759904 M0.181756502,241.795166 L637.056541,241.795166 M0.181756502,219.830427 L637.056541,219.830427 M0.181756502,197.865688 L637.056541,197.865688 M0.181756502,175.900949 L637.056541,175.900949 M0.181756502,153.936211 L637.056541,153.936211 M0.181756502,131.971472 L637.056541,131.971472 M0.181756502,110.006733 L637.056541,110.006733 M0.181756502,88.0419945 L637.056541,88.0419945 M0.181756502,66.0772557 L637.056541,66.0772557 M0.181756502,44.112517 L637.056541,44.112517 M0.181756502,22.1477782 L637.056541,22.1477782 M0.181756502,0.18303949 L637.056541,0.18303949" id="Combined-Shape"></path>
            </g>
            <circle id="Oval-Copy-51" fill="#FFFFFF" cx="529.319555" cy="456.325236" r="1.16208575"></circle>
            <circle id="Oval-Copy-50" fill="#FFFFFF" cx="441.566188" cy="456.325236" r="1.16208575"></circle>
            <circle id="Oval-Copy-49" fill="#FFFFFF" cx="353.812822" cy="456.325236" r="1.16208575"></circle>
            <circle id="Oval-Copy-48" fill="#FFFFFF" cx="265.709455" cy="456.325236" r="1.16208575"></circle>
            <circle id="Oval-Copy-47" fill="#FFFFFF" cx="177.956089" cy="455.975236" r="1.16208575"></circle>
            <circle id="Oval-Copy-46" fill="#FFFFFF" cx="90.2027221" cy="455.975236" r="1.16208575"></circle>
            <circle id="Oval-Copy-42" fill="#FFFFFF" cx="529.319555" cy="368.22187" r="1.16208575"></circle>
            <circle id="Oval-Copy-41" fill="#FFFFFF" cx="441.566188" cy="368.22187" r="1.16208575"></circle>
            <circle id="Oval-Copy-40" fill="#FFFFFF" cx="353.812822" cy="368.22187" r="1.16208575"></circle>
            <circle id="Oval-Copy-39" fill="#FFFFFF" cx="265.709455" cy="368.22187" r="1.16208575"></circle>
            <circle id="Oval-Copy-38" fill="#FFFFFF" cx="177.956089" cy="368.22187" r="1.16208575"></circle>
            <circle id="Oval-Copy-37" fill="#FFFFFF" cx="90.2027221" cy="368.22187" r="1.16208575"></circle>
            <g id="Group-5" opacity="0.661958582" transform="translate(89.040636, 278.606417)" fill="#FFFFFF">
                <circle id="Oval-Copy-33" cx="440.278918" cy="1.51208575" r="1.16208575"></circle>
                <circle id="Oval-Copy-32" cx="352.525552" cy="1.51208575" r="1.16208575"></circle>
                <circle id="Oval-Copy-31" cx="264.772185" cy="1.51208575" r="1.16208575"></circle>
                <circle id="Oval-Copy-30" cx="176.668819" cy="1.51208575" r="1.16208575"></circle>
                <circle id="Oval-Copy-29" cx="88.9154523" cy="1.16208575" r="1.16208575"></circle>
                <circle id="Oval-Copy-28" cx="1.16208575" cy="1.51208575" r="1.16208575"></circle>
            </g>
            <g id="Group-4" opacity="0.181400793" transform="translate(89.040636, 190.853051)" fill="#FFFFFF">
                <circle id="Oval-Copy-24" cx="440.278918" cy="1.16208575" r="1.16208575"></circle>
                <circle id="Oval-Copy-23" cx="352.525552" cy="1.16208575" r="1.16208575"></circle>
                <circle id="Oval-Copy-22" cx="264.772185" cy="1.16208575" r="1.16208575"></circle>
                <circle id="Oval-Copy-21" cx="177.018819" cy="1.16208575" r="1.16208575"></circle>
                <circle id="Oval-Copy-20" cx="88.9154523" cy="1.16208575" r="1.16208575"></circle>
                <circle id="Oval-Copy-19" cx="1.16208575" cy="1.16208575" r="1.16208575"></circle>
            </g>
            <g id="Group-3" transform="translate(87.990636, 102.749684)" fill="#FFFFFF" opacity="0.118322036">
                <circle id="Oval-Copy-15" cx="441.678918" cy="1.16208575" r="1.16208575"></circle>
                <circle id="Oval-Copy-14" cx="353.575552" cy="1.16208575" r="1.16208575"></circle>
                <circle id="Oval-Copy-13" cx="265.472185" cy="1.16208575" r="1.16208575"></circle>
                <circle id="Oval-Copy-12" cx="177.368819" cy="1.16208575" r="1.16208575"></circle>
                <circle id="Oval-Copy-11" cx="89.2654523" cy="1.16208575" r="1.16208575"></circle>
                <circle id="Oval-Copy-10" cx="1.16208575" cy="1.16208575" r="1.16208575"></circle>
            </g>
        </g>
    </g>
</svg>