<svg width="21" height="17" viewBox="0 0 21 17" fill="none" xmlns="http://www.w3.org/2000/svg">
<path d="M19.9796 1.92178C19.2365 2.2477 18.445 2.46373 17.6196 2.56862C18.4687 2.06164 19.1166 1.26496 19.4215 0.304688C18.6296 0.776706 17.7556 1.11012 16.8241 1.29617C16.0723 0.495744 15.0009 0 13.8321 0C11.5645 0 9.7388 1.84062 9.7388 4.09707C9.7388 4.42174 9.76628 4.73391 9.83372 5.03111C6.42843 4.86502 3.41526 3.23296 1.39107 0.746737C1.03769 1.35987 0.830402 2.06164 0.830402 2.81712C0.830402 4.23568 1.56091 5.49314 2.64979 6.22115C1.99171 6.20866 1.34613 6.01759 0.799183 5.71667C0.799183 5.72916 0.799183 5.74539 0.799183 5.76163C0.799183 7.75209 2.21898 9.40539 4.08084 9.78626C3.74742 9.87741 3.38405 9.92112 3.00693 9.92112C2.74469 9.92112 2.47997 9.90614 2.23147 9.85119C2.76219 11.4732 4.26815 12.6659 6.05881 12.7045C4.66523 13.7946 2.89579 14.4516 0.980249 14.4516C0.644342 14.4516 0.322171 14.4365 0 14.3952C1.8144 15.5653 3.9647 16.2334 6.28358 16.2334C13.8209 16.2334 17.9417 9.9898 17.9417 4.57783C17.9417 4.39676 17.9354 4.22194 17.9266 4.04837C18.7396 3.47145 19.4226 2.75094 19.9796 1.92178Z" fill="white"/>
</svg>
