<svg width="18" height="18" viewBox="0 0 18 18" fill="none" xmlns="http://www.w3.org/2000/svg">
<path fill-rule="evenodd" clip-rule="evenodd" d="M14.9533 5.75815C14.9654 5.7621 14.9774 5.76604 14.9895 5.7699C16.7184 6.2208 18 7.7796 18 9.6489V18H13.9761V10.125C12.6927 7.0137 9.6507 11.25 9.6507 11.25V18H5.625V5.625H9.6507V7.9911C10.1412 7.3314 11.6289 5.625 13.9761 5.625C14.2188 5.62493 14.461 5.64935 14.6988 5.6979C14.7531 5.70669 14.8071 5.7172 14.8608 5.7294C14.8929 5.73839 14.9232 5.7483 14.9533 5.75815ZM4.0257 5.625H0V18H4.0257V5.625Z" fill="white"/>
<circle cx="1.9692" cy="1.9692" r="1.9692" fill="white"/>
</svg>
