<svg width="23" height="16" viewBox="0 0 23 16" fill="none" xmlns="http://www.w3.org/2000/svg">
<path fill-rule="evenodd" clip-rule="evenodd" d="M21.7199 6.80416C20.8579 4.18823 19.8896 2.79448 19.8113 2.68187L19.8065 2.6748C19.7491 2.61299 18.3283 1.11098 14.9039 0L14.4515 1.08833C16.0806 1.61689 17.2364 2.2617 17.8721 2.67832C15.9743 2.17771 13.7167 1.87112 11.7172 1.87112C9.71778 1.87112 7.46021 2.17771 5.56253 2.67832C6.19812 2.26173 7.35391 1.61689 8.98304 1.08833L8.53053 0C5.10617 1.11098 3.68533 2.61299 3.62801 2.6748L3.62306 2.68197C3.54434 2.79534 2.57632 4.18905 1.71475 6.80416C0.855487 9.41199 0.529069 13.0909 0.517212 13.2384L0.52444 13.2487C0.670417 13.4565 2.45728 16 7.1538 16L8.37023 14.4439C7.00741 14.1243 5.7079 13.6089 4.51834 12.9094L5.2456 11.9442C7.16469 13.0726 9.40255 13.6692 11.7172 13.6692C14.0319 13.6692 16.2699 13.0726 18.189 11.9442L18.9161 12.9094C17.7265 13.6089 16.427 14.1243 15.0642 14.4439L16.2807 16C20.9775 16 22.7642 13.4562 22.91 13.2486L22.9173 13.2384C22.9054 13.0909 22.5789 9.41199 21.7199 6.80416ZM8.68281 9.83735H7.37031V7.90494H8.68281V9.83735ZM14.7516 9.83735H16.0642V7.90494H14.7516V9.83735Z" fill="white"/>
</svg>
