<?xml version="1.0" encoding="UTF-8"?>
<svg width="1440px" height="694px" viewBox="0 0 1440 694" version="1.1" xmlns="http://www.w3.org/2000/svg" xmlns:xlink="http://www.w3.org/1999/xlink">
    <title>Artboard Copy 3</title>
    <g id="Artboard-Copy-3" stroke="none" stroke-width="1" fill="none" fill-rule="evenodd">
        <rect fill="#000000" x="0" y="0" width="1440" height="694"></rect>
        <g id="Group-3" transform="translate(-39.000000, -732.000000)">
            <path d="M745.551492,777.414864 C747.118756,777.414864 748.593828,777.11524 749.976708,776.515992 C751.359588,775.916744 752.581132,775.087016 753.64134,774.026808 C754.701548,772.9666 755.519752,771.75658 756.095952,770.396748 C756.672152,769.036916 756.960252,767.55032 756.960252,765.93696 L756.960252,765.93696 L756.960252,727.769472 L749.907564,727.769472 L749.907564,765.24552 C749.907564,766.997168 749.4927,768.287856 748.662972,769.117584 C747.833244,769.947312 746.796084,770.362176 745.551492,770.362176 C744.3069,770.362176 743.26974,769.947312 742.440012,769.117584 C741.610284,768.287856 741.19542,766.997168 741.19542,765.24552 L741.19542,765.24552 L741.19542,727.769472 L734.142732,727.769472 L734.142732,765.93696 C734.142732,767.55032 734.442356,769.036916 735.041604,770.396748 C735.640852,771.75658 736.47058,772.9666 737.530788,774.026808 C738.590996,775.087016 739.801016,775.916744 741.160848,776.515992 C742.52068,777.11524 743.984228,777.414864 745.551492,777.414864 Z M767.608428,777 L773.6931,760.40544 L779.846916,777 L787.314468,777 L777.1503,751.209288 L786.553884,727.769472 L779.086332,727.769472 L773.6931,742.358856 L768.369012,727.769472 L760.90146,727.769472 L770.097612,751.209288 L760.140876,777 L767.608428,777 Z" id="UX" fill="#018FFF" fill-rule="nonzero"></path>
            <circle id="Oval-Copy" stroke="#018FFF" cx="759" cy="759" r="95.5"></circle>
            <circle id="Oval-Copy-2" stroke="#018FFF" opacity="0.9" cx="759" cy="759" r="113.5"></circle>
            <circle id="Oval-Copy-3" stroke="#018FFF" opacity="0.8" cx="759" cy="759" r="134.5"></circle>
            <circle id="Oval-Copy-4" stroke="#018FFF" opacity="0.7" cx="759" cy="759" r="163.5"></circle>
            <circle id="Oval-Copy-6" stroke="#018FFF" opacity="0.6" cx="759" cy="759" r="198.5"></circle>
            <circle id="Oval-Copy-7" stroke="#018FFF" opacity="0.5" cx="759" cy="759" r="246.5"></circle>
            <circle id="Oval-Copy-8" stroke="#018FFF" opacity="0.4" cx="759" cy="759" r="306.5"></circle>
            <circle id="Oval-Copy-9" stroke="#018FFF" opacity="0.3" cx="759" cy="759" r="411.5"></circle>
            <circle id="Oval-Copy-10" stroke="#018FFF" opacity="0.2" cx="759" cy="759" r="567.5"></circle>
            <circle id="Oval-Copy-11" stroke="#018FFF" opacity="0.144503348" cx="759" cy="759" r="758.5"></circle>
            <g id="Group-2" transform="translate(616.600000, 782.600000)">
                <circle id="Oval-Copy-15" fill="#018FFF" cx="14.4" cy="14.4" r="14.4"></circle>
                <path d="M5.26176144,15.64 L5.26176144,14.5404822 L6.009,14.541 L6.54271056,15.64 L7.13946672,15.64 L6.557,14.447 L6.6481812,14.402496 C6.71448744,14.3644853 6.77310248,14.318662 6.82402632,14.265026 L6.89464368,14.1787125 C7.0243416,13.9943666 7.08919056,13.773953 7.08919056,13.5174717 C7.08919056,13.3440554 7.06040928,13.1863048 7.00284672,13.04422 C6.94528416,12.9021352 6.85711872,12.7844598 6.7383504,12.6911939 C6.61958208,12.597928 6.46911792,12.5374509 6.28695792,12.5097626 C6.24615408,12.5024762 6.20170704,12.49774 6.1536168,12.4955541 C6.10552656,12.4933682 6.06618,12.4922752 6.03557712,12.4922752 L6.03557712,12.4922752 L4.73495472,12.4922752 L4.73495472,15.64 L5.26176144,15.64 Z M6.01371792,14.0486502 L5.26176144,14.0486502 L5.26176144,12.9862931 L6.01371792,12.9862931 C6.04286352,12.9862931 6.07565232,12.9873861 6.11208432,12.989572 C6.14851632,12.9917579 6.18203376,12.9972227 6.21263664,13.0059664 C6.30007344,13.0278256 6.36892992,13.0664435 6.41920608,13.1218202 C6.46948224,13.1771968 6.5051856,13.2402242 6.52631616,13.3109022 C6.54744672,13.3815803 6.558012,13.4504368 6.558012,13.5174717 C6.558012,13.5845066 6.54744672,13.6529987 6.52631616,13.7229482 C6.5051856,13.7928976 6.46948224,13.8555606 6.41920608,13.9109373 C6.36892992,13.9663139 6.30007344,14.0049318 6.21263664,14.026791 C6.18203376,14.0355347 6.14851632,14.0413638 6.11208432,14.0442784 C6.07565232,14.047193 6.04286352,14.0486502 6.01371792,14.0486502 L6.01371792,14.0486502 Z M9.76257072,14.6060598 C9.78297264,14.3233475 9.75164112,14.0777958 9.66857616,13.8694048 C9.5855112,13.6610138 9.45836352,13.49962 9.28713312,13.3852235 C9.11590272,13.270827 8.907876,13.2136288 8.66305296,13.2136288 C8.43134544,13.2136288 8.22732624,13.2660909 8.05099536,13.371015 C7.87466448,13.4759392 7.73695152,13.6234888 7.63785648,13.8136638 C7.53876144,14.0038389 7.48921392,14.2278957 7.48921392,14.4858342 C7.48921392,14.7248282 7.5398544,14.9361338 7.64113536,15.119751 C7.74241632,15.3033683 7.88340816,15.4469104 8.06411088,15.5503773 C8.2448136,15.6538442 8.45466192,15.7055776 8.69365584,15.7055776 C8.92099152,15.7055776 9.12901824,15.6465578 9.317736,15.5285181 C9.50645376,15.4104784 9.64598832,15.2450771 9.73633968,15.0323142 L9.73633968,15.0323142 L9.21609072,14.874928 C9.16508592,14.984224 9.09258624,15.0676533 8.99859168,15.1252158 C8.90459712,15.1827784 8.79275088,15.2115597 8.66305296,15.2115597 C8.46194832,15.2115597 8.30893392,15.1459821 8.20400976,15.0148269 C8.14105526,14.9361338 8.09698712,14.8380297 8.07180532,14.7205146 L8.054,14.607 L9.50463216,14.6060598 L9.76257072,14.6060598 Z M9.226,14.209 L8.067,14.209 L8.07180532,14.1813793 C8.08859318,14.0984892 8.11377498,14.0254503 8.14735071,13.9622627 L8.20400976,13.8748696 C8.30893392,13.7415285 8.46923472,13.6748579 8.68491216,13.6748579 C8.87581584,13.6748579 9.01571472,13.7338778 9.1046088,13.8519174 C9.15794525,13.9227412 9.19554307,14.0184845 9.21740227,14.1391473 L9.226,14.209 Z M11.1637454,15.7055776 C11.468317,15.7055776 11.7069466,15.6378141 11.8796342,15.502287 C12.0523219,15.36676 12.1386658,15.1802282 12.1386658,14.9426915 C12.1386658,14.82028 12.1135277,14.7160845 12.0632515,14.630105 C12.0129754,14.5441254 11.9313677,14.4701685 11.8184285,14.4082341 C11.7054893,14.3462997 11.5550251,14.2912874 11.367036,14.2431971 C11.1834187,14.1965642 11.0453414,14.1572176 10.9528042,14.1251574 C10.8602669,14.0930973 10.7986968,14.0610371 10.7680939,14.028977 C10.737491,13.9969168 10.7221896,13.9582989 10.7221896,13.9131232 C10.7221896,13.8329728 10.7600789,13.7706741 10.8358574,13.726227 C10.911636,13.68178 11.0114597,13.6631997 11.1353285,13.6704861 C11.2650264,13.6777725 11.3688576,13.7105613 11.4468221,13.7688525 C11.5247866,13.8271437 11.5703266,13.9065654 11.5834421,14.0071178 L11.5834421,14.0071178 L12.1211784,13.9109373 C12.1007765,13.7695811 12.0468571,13.646441 11.9594203,13.5415168 C11.8719835,13.4365926 11.7572227,13.3557136 11.6151379,13.2988797 C11.4730531,13.2420458 11.3102021,13.2136288 11.1265848,13.2136288 C10.9385957,13.2136288 10.7753803,13.2431387 10.6369387,13.3021586 C10.4984971,13.3611784 10.3906584,13.4453363 10.3134226,13.5546323 C10.2361867,13.6639283 10.1975688,13.792169 10.1975688,13.9393542 C10.1975688,14.0573939 10.2230712,14.1579462 10.274076,14.2410112 C10.3250808,14.3240762 10.4088744,14.3958472 10.5254568,14.4563243 C10.6420392,14.5168014 10.7994254,14.573271 10.9976155,14.6257331 C11.1754037,14.6723661 11.3072875,14.710984 11.393267,14.7415869 C11.4792466,14.7721898 11.5349875,14.8038856 11.5604899,14.8366744 C11.5859923,14.8694632 11.5987435,14.9128173 11.5987435,14.9667366 C11.5987435,15.0541734 11.5641331,15.1230299 11.4949123,15.1733061 C11.4256915,15.2235822 11.3276894,15.2487203 11.2009061,15.2487203 C11.0566354,15.2487203 10.9371384,15.2152029 10.8424152,15.148168 C10.747692,15.0811331 10.6864862,14.9893245 10.6587979,14.8727421 L10.6587979,14.8727421 L10.1210616,14.955807 C10.1604082,15.1933437 10.2711614,15.3776896 10.4533214,15.5088448 C10.6354814,15.64 10.8722894,15.7055776 11.1637454,15.7055776 Z M14.7617698,14.6060598 C14.7821717,14.3233475 14.7508402,14.0777958 14.6677752,13.8694048 C14.5847102,13.6610138 14.4575626,13.49962 14.2863322,13.3852235 C14.1151018,13.270827 13.907075,13.2136288 13.662252,13.2136288 C13.4305445,13.2136288 13.2265253,13.2660909 13.0501944,13.371015 C12.8738635,13.4759392 12.7361506,13.6234888 12.6370555,13.8136638 C12.5379605,14.0038389 12.488413,14.2278957 12.488413,14.4858342 C12.488413,14.7248282 12.5390534,14.9361338 12.6403344,15.119751 C12.7416154,15.3033683 12.8826072,15.4469104 13.0633099,15.5503773 C13.2440126,15.6538442 13.453861,15.7055776 13.6928549,15.7055776 C13.9201906,15.7055776 14.1282173,15.6465578 14.316935,15.5285181 C14.5056528,15.4104784 14.6451874,15.2450771 14.7355387,15.0323142 L14.7355387,15.0323142 L14.2152898,14.874928 C14.164285,14.984224 14.0917853,15.0676533 13.9977907,15.1252158 C13.9037962,15.1827784 13.7919499,15.2115597 13.662252,15.2115597 C13.4611474,15.2115597 13.308133,15.1459821 13.2032088,15.0148269 C13.1402543,14.9361338 13.0961862,14.8380297 13.0710044,14.7205146 L13.054,14.607 L14.5038312,14.6060598 L14.7617698,14.6060598 Z M14.225,14.209 L13.067,14.209 L13.0710044,14.1813793 C13.0877922,14.0984892 13.112974,14.0254503 13.1465498,13.9622627 L13.2032088,13.8748696 C13.308133,13.7415285 13.4684338,13.6748579 13.6841112,13.6748579 C13.8750149,13.6748579 14.0149138,13.7338778 14.1038078,13.8519174 C14.1571443,13.9227412 14.1947421,14.0184845 14.2166013,14.1391473 L14.225,14.209 Z M15.8678453,15.7055776 C16.0806082,15.7055776 16.258032,15.6658667 16.4001168,15.586445 C16.5422016,15.5070232 16.6664347,15.3820614 16.7728162,15.2115597 L16.696,15.321 L16.696309,15.64 L17.1575381,15.64 L17.1575381,14.190735 C17.1575381,14.0887254 17.1531662,13.9943666 17.1444226,13.9076584 C17.1356789,13.8209502 17.1101765,13.7360637 17.0679154,13.6529987 C16.9906795,13.4970698 16.8722755,13.3848592 16.7127034,13.316367 C16.5531312,13.2478749 16.368421,13.2136288 16.1585726,13.2136288 C15.8802322,13.2136288 15.6590899,13.2741059 15.4951459,13.3950602 C15.3312019,13.5160144 15.2200843,13.6763152 15.1617931,13.8759626 L15.1617931,13.8759626 L15.6426955,14.026791 C15.6820421,13.9058368 15.7512629,13.8205859 15.8503579,13.7710384 C15.949453,13.7214909 16.0521912,13.6967171 16.1585726,13.6967171 C16.3349035,13.6967171 16.4602296,13.735335 16.5345509,13.8125709 C16.6088722,13.8898067 16.6453042,14.0100323 16.6438469,14.1732477 L16.64,14.095 L16.5922045,14.101932 L16.5922045,14.101932 L16.3629562,14.1349941 C16.213585,14.1561246 16.0751434,14.1790768 15.9476314,14.2038506 C15.8201194,14.2286243 15.7090018,14.2563126 15.6142786,14.2869155 C15.4889525,14.3291766 15.3869429,14.3834603 15.3082498,14.4497666 C15.2295566,14.5160728 15.1712654,14.5947659 15.1333762,14.6858459 C15.0954869,14.7769259 15.0765422,14.8792998 15.0765422,14.9929677 C15.0765422,15.1226656 15.1067808,15.2414339 15.1672579,15.3492726 C15.227735,15.4571114 15.3169934,15.5434552 15.4350331,15.6083042 C15.5530728,15.6731531 15.6973435,15.7055776 15.8678453,15.7055776 Z M15.9727694,15.285881 C15.8897045,15.285881 15.8201194,15.2727654 15.7640141,15.2465344 C15.7079088,15.2203034 15.6652834,15.1849643 15.6361378,15.1405173 C15.6069922,15.0960702 15.5924194,15.0447011 15.5924194,14.9864099 C15.5924194,14.9354051 15.6037133,14.8909581 15.6263011,14.8530688 C15.648889,14.8151795 15.6813134,14.7816621 15.7235746,14.7525165 C15.7658357,14.7233709 15.8175691,14.6978685 15.8787749,14.6760093 C15.9414379,14.6556074 16.0135733,14.637027 16.095181,14.6202683 C16.1767886,14.6035096 16.2744264,14.5856579 16.3880942,14.5667133 C16.4259835,14.5603984 16.4663826,14.5537597 16.5092914,14.5467971 L16.634,14.527 L16.6326744,14.5827434 L16.6326744,14.5827434 L16.6296384,14.6639867 C16.6259952,14.7506949 16.6103294,14.8275664 16.5826411,14.8946013 C16.5651538,14.9485206 16.531272,15.0060832 16.4809958,15.067289 C16.4307197,15.1284947 16.3633205,15.1802282 16.2787982,15.2224893 C16.194276,15.2647504 16.0922664,15.285881 15.9727694,15.285881 Z M18.2548699,15.64 L18.2548699,14.4399299 C18.2548699,14.3495786 18.2657995,14.2654206 18.2876587,14.1874562 C18.3095179,14.1094917 18.3433997,14.0399066 18.389304,13.9787008 C18.4352083,13.917495 18.4945925,13.8672189 18.5674565,13.8278723 C18.6403205,13.7841539 18.7222925,13.7586515 18.8133725,13.7513651 C18.9044525,13.7440787 18.9849672,13.7506365 19.0549166,13.7710384 L19.0549166,13.7710384 L19.0549166,13.2792064 C18.9849672,13.2675482 18.9128318,13.2642693 18.8385106,13.2693698 C18.7641893,13.2744702 18.6916896,13.2883144 18.6210115,13.3109022 C18.5503334,13.3334901 18.4858488,13.3644573 18.4275576,13.4038038 C18.3590654,13.446065 18.3004099,13.49962 18.251591,13.564469 C18.2353181,13.5860853 18.2201381,13.6084707 18.206051,13.6316253 L18.191,13.66 L18.1914782,13.2792064 L17.7258773,13.2792064 L17.7258773,15.64 L18.2548699,15.64 Z M20.4517195,15.7055776 C20.7154872,15.7055776 20.938451,15.641093 21.120611,15.5121237 C21.302771,15.3831544 21.430283,15.1984442 21.503147,14.957993 L21.503147,14.957993 L20.9654107,14.8377674 C20.9246069,14.9587216 20.8637654,15.0512589 20.7828864,15.1153792 C20.7020074,15.1794995 20.5916184,15.2115597 20.4517195,15.2115597 C20.2535294,15.2115597 20.1041582,15.1423389 20.0036059,15.0038973 C19.9030536,14.8654557 19.8527774,14.6840243 19.8527774,14.4596032 C19.8527774,14.3153325 19.873908,14.1863632 19.9161691,14.0726954 C19.9584302,13.9590275 20.0240078,13.8697691 20.1129019,13.8049202 C20.201796,13.7400712 20.3147352,13.7076467 20.4517195,13.7076467 C20.5726738,13.7076467 20.6805125,13.7429858 20.7752357,13.8136638 C20.8699589,13.8843419 20.9377224,13.9830726 20.9785262,14.109856 L20.9785262,14.109856 L21.503147,13.9677712 C21.4463131,13.7346064 21.3249946,13.5506248 21.1391914,13.4158264 C20.9533882,13.281028 20.7264168,13.2136288 20.4582773,13.2136288 C20.2192834,13.2136288 20.0130782,13.2671838 19.8396619,13.3742939 C19.6662456,13.481404 19.5325402,13.6285893 19.4385456,13.8158498 C19.344551,14.0031102 19.2968251,14.2176947 19.2953678,14.4596032 C19.2968251,14.6971398 19.3430938,14.9099027 19.4341738,15.0978918 C19.5252538,15.285881 19.6567733,15.4341592 19.8287323,15.5427266 C20.0006914,15.6512939 20.2083538,15.7055776 20.4517195,15.7055776 Z M22.4715096,15.64 L22.4715096,14.4268144 C22.4715096,14.2825437 22.4875397,14.1641397 22.5195998,14.0716024 C22.55166,13.9790651 22.5942854,13.9062011 22.6474762,13.8530104 C22.7006669,13.7998197 22.760051,13.7622947 22.8256286,13.7404355 C22.8912062,13.7185763 22.9575125,13.7076467 23.0245474,13.7076467 C23.1498734,13.7076467 23.2493328,13.7346064 23.3229254,13.7885258 C23.3965181,13.8424451 23.4518947,13.9113016 23.4890554,13.9950952 C23.526216,14.0788888 23.5498968,14.1659613 23.5600978,14.2563126 C23.5702987,14.346664 23.5753992,14.4290003 23.5753992,14.5033216 L23.5753992,14.5033216 L23.5753992,15.64 L24.1087637,15.64 L24.1087637,14.3218902 C24.1087637,14.2650563 24.1040275,14.1910994 24.0945552,14.1000194 C24.0850829,14.0089394 24.0643166,13.9123946 24.0322565,13.810385 C24.0001963,13.7083754 23.9506488,13.6121949 23.8836139,13.5218435 C23.816579,13.4314922 23.7262277,13.3571709 23.6125598,13.2988797 C23.498892,13.2405885 23.3546213,13.2114429 23.1797477,13.2114429 C22.9582411,13.2114429 22.7717093,13.2598974 22.6201522,13.3568066 C22.5443736,13.4052611 22.4777941,13.462004 22.4204137,13.5270351 L22.408,13.544 L22.4081179,12.4922752 L21.9381451,12.4922752 L21.9381451,15.64 L22.4715096,15.64 Z" id="Research" fill="#000000" fill-rule="nonzero"></path>
            </g>
            <g id="Group-2-Copy" transform="translate(838.000000, 866.000000)">
                <circle id="Oval-Copy-15" fill="#018FFF" cx="24" cy="24" r="24"></circle>
                <path d="M11.5366128,26.409296 C12.141384,26.409296 12.64536,26.2581032 13.0485408,25.9557176 C13.4517216,25.653332 13.7346768,25.2459008 13.8974064,24.733424 L13.8974064,24.733424 L13.0121088,24.4893296 C12.9100992,24.8293616 12.73644,25.0965296 12.4911312,25.2908336 C12.2458224,25.4851376 11.9276496,25.5822896 11.5366128,25.5822896 C11.1844368,25.5822896 10.890552,25.5033536 10.6549584,25.3454816 C10.4193648,25.1876096 10.2426696,24.9659816 10.1248728,24.6805976 C10.007076,24.3952136 9.9481776,24.0606464 9.9481776,23.676896 C9.9506064,23.2931456 10.0107192,22.9585784 10.128516,22.6731944 C10.2463128,22.3878104 10.4224008,22.1661824 10.65678,22.0083104 C10.8911592,21.8504384 11.1844368,21.7715024 11.5366128,21.7715024 C11.9276496,21.7715024 12.2458224,21.8680472 12.4911312,22.0611368 C12.73644,22.2542264 12.9100992,22.5220016 13.0121088,22.8644624 L13.0121088,22.8644624 L13.8974064,22.620368 C13.7346768,22.1078912 13.4517216,21.70046 13.0485408,21.3980744 C12.64536,21.0956888 12.141384,20.944496 11.5366128,20.944496 C11.011992,20.944496 10.562664,21.0592568 10.1886288,21.2887784 C9.8145936,21.5183 9.527388,21.8382944 9.327012,22.2487616 C9.126636,22.6592288 9.026448,23.1352736 9.026448,23.676896 C9.026448,24.2185184 9.126636,24.6945632 9.327012,25.1050304 C9.527388,25.5154976 9.8145936,25.835492 10.1886288,26.0650136 C10.562664,26.2945352 11.011992,26.409296 11.5366128,26.409296 Z M16.4367168,26.409296 C16.8301824,26.409296 17.1738576,26.321252 17.4677424,26.145164 C17.7616272,25.969076 17.9905416,25.7249816 18.1544856,25.4128808 C18.3184296,25.10078 18.4004016,24.7407104 18.4004016,24.332672 C18.4004016,23.9270624 18.3190368,23.5682072 18.1563072,23.2561064 C17.9935776,22.9440056 17.7652704,22.699304 17.4713856,22.5220016 C17.1775008,22.3446992 16.8326112,22.256048 16.4367168,22.256048 C16.0505376,22.256048 15.7105056,22.3434848 15.4166208,22.5183584 C15.122736,22.693232 14.8932144,22.936112 14.728056,23.2469984 C14.5628976,23.5578848 14.4803184,23.919776 14.4803184,24.332672 C14.4803184,24.7382816 14.561076,25.0971368 14.7225912,25.4092376 C14.8841064,25.7213384 15.1118064,25.96604 15.4056912,26.1433424 C15.699576,26.3206448 16.0432512,26.409296 16.4367168,26.409296 Z M16.4367168,25.5859328 C16.0991136,25.5859328 15.8434824,25.4723864 15.6698232,25.2452936 C15.496164,25.0182008 15.4093344,24.7139936 15.4093344,24.332672 C15.4093344,24.0849344 15.4457664,23.8669496 15.5186304,23.6787176 C15.5914944,23.4904856 15.7038264,23.3435432 15.8556264,23.2378904 C16.0074264,23.1322376 16.2011232,23.0794112 16.4367168,23.0794112 C16.7816064,23.0794112 17.0402736,23.1929576 17.2127184,23.4200504 C17.3851632,23.6471432 17.4713856,23.9513504 17.4713856,24.332672 C17.4713856,24.7018496 17.3863776,25.0030208 17.2163616,25.2361856 C17.0463456,25.4693504 16.786464,25.5859328 16.4367168,25.5859328 Z M20.08356,26.3 L20.08356,24.278024 C20.08356,24.0375728 20.1102768,23.8402328 20.1637104,23.686004 C20.217144,23.5317752 20.2881864,23.4103352 20.3768376,23.321684 C20.4654888,23.2330328 20.5644624,23.1704912 20.6737584,23.1340592 C20.7830544,23.0976272 20.8935648,23.0794112 21.0052896,23.0794112 C21.2141664,23.0794112 21.379932,23.124344 21.5025864,23.2142096 C21.6252408,23.3040752 21.7175352,23.418836 21.7794696,23.558492 C21.841404,23.698148 21.880872,23.8432688 21.8978736,23.9938544 C21.9148752,24.14444 21.923376,24.2816672 21.923376,24.405536 L21.923376,24.405536 L21.923376,26.3 L22.8123168,26.3 L22.8123168,24.1031504 C22.8123168,24.0084272 22.8044232,23.8851656 22.788636,23.7333656 C22.7728488,23.5815656 22.7382384,23.4206576 22.6848048,23.2506416 C22.6313712,23.0806256 22.548792,22.9203248 22.4370672,22.7697392 C22.3253424,22.6191536 22.1747568,22.4952848 21.9853104,22.3981328 C21.795864,22.3009808 21.5554128,22.2524048 21.2639568,22.2524048 C20.8947792,22.2524048 20.5838928,22.3331624 20.3312976,22.4946776 C20.2302595,22.5592837 20.1390338,22.6327306 20.0576204,22.7150183 L19.977,22.806 L19.9779072,22.365344 L19.1946192,22.365344 L19.1946192,26.3 L20.08356,26.3 Z M25.4062752,26.409296 C25.845888,26.409296 26.2174944,26.3018216 26.5210944,26.0868728 C26.8246944,25.871924 27.0372144,25.5640736 27.1586544,25.1633216 L27.1586544,25.1633216 L26.2624272,24.9629456 C26.1944208,25.164536 26.0930184,25.3187648 25.95822,25.425632 C25.8234216,25.5324992 25.63944,25.5859328 25.4062752,25.5859328 C25.0759584,25.5859328 24.8270064,25.4705648 24.6594192,25.2398288 C24.491832,25.0090928 24.4080384,24.7067072 24.4080384,24.332672 C24.4080384,24.0922208 24.443256,23.877272 24.5136912,23.6878256 C24.5841264,23.4983792 24.6934224,23.3496152 24.8415792,23.2415336 C24.989736,23.133452 25.177968,23.0794112 25.4062752,23.0794112 C25.6078656,23.0794112 25.7875968,23.1383096 25.9454688,23.2561064 C26.1033408,23.3739032 26.21628,23.5384544 26.2842864,23.74976 L26.2842864,23.74976 L27.1586544,23.512952 C27.0639312,23.124344 26.8617336,22.817708 26.5520616,22.593044 C26.2423896,22.36838 25.864104,22.256048 25.4172048,22.256048 C25.0188816,22.256048 24.6752064,22.3453064 24.3861792,22.5238232 C24.097152,22.70234 23.8743096,22.9476488 23.717652,23.2597496 C23.5609944,23.5718504 23.4814512,23.9294912 23.4790224,24.332672 C23.4814512,24.7285664 23.5585656,25.0831712 23.7103656,25.3964864 C23.8621656,25.7098016 24.0813648,25.956932 24.3679632,26.1378776 C24.6545616,26.3188232 25.0006656,26.409296 25.4062752,26.409296 Z M31.3519776,24.5767664 C31.3859808,24.1055792 31.3337616,23.6963264 31.19532,23.349008 C31.0568784,23.0016896 30.8449656,22.7327 30.5595816,22.5420392 C30.2741976,22.3513784 29.9274864,22.256048 29.519448,22.256048 C29.1332688,22.256048 28.7932368,22.3434848 28.499352,22.5183584 C28.2054672,22.693232 27.9759456,22.939148 27.8107872,23.2561064 C27.6456288,23.5730648 27.5630496,23.9464928 27.5630496,24.3763904 C27.5630496,24.7747136 27.6474504,25.1268896 27.816252,25.4329184 C27.9850536,25.7389472 28.22004,25.978184 28.5212112,26.1506288 C28.8223824,26.3230736 29.1721296,26.409296 29.5704528,26.409296 C29.9493456,26.409296 30.2960568,26.3109296 30.6105864,26.1141968 C30.925116,25.917464 31.1576736,25.6417952 31.3082592,25.2871904 L31.3082592,25.2871904 L30.4411776,25.02488 C30.3561696,25.20704 30.2353368,25.3460888 30.0786792,25.4420264 C29.9220216,25.537964 29.7356112,25.5859328 29.519448,25.5859328 C29.1842736,25.5859328 28.9292496,25.4766368 28.754376,25.2580448 C28.6294663,25.1019077 28.5491672,24.8999207 28.5134787,24.652084 L28.505,24.577 L30.92208,24.5767664 L31.3519776,24.5767664 Z M30.46,23.914 L28.527,23.914 L28.5402451,23.8396132 C28.5723647,23.6941083 28.6205442,23.5674513 28.6847834,23.4596423 L28.754376,23.358116 C28.9292496,23.1358808 29.1964176,23.0247632 29.55588,23.0247632 C29.8740528,23.0247632 30.1072176,23.1231296 30.2553744,23.3198624 C30.3400354,23.4322811 30.4009041,23.5823711 30.4379805,23.7701322 L30.46,23.914 Z M32.9367696,28.048736 L32.936,26.1 L32.9841312,26.136056 C33.2006992,26.287856 33.4602772,26.376406 33.7628652,26.401706 L33.9495792,26.409296 C34.3114704,26.409296 34.6272144,26.318216 34.8968112,26.136056 C35.166408,25.953896 35.3752848,25.7061584 35.5234416,25.3928432 C35.6715984,25.079528 35.7456768,24.7261376 35.7456768,24.332672 C35.7456768,23.9343488 35.670384,23.5791368 35.5197984,23.267036 C35.3692128,22.9549352 35.1573,22.708412 34.88406,22.5274664 C34.61082,22.3465208 34.2883968,22.256048 33.9167904,22.256048 C33.5427552,22.256048 33.2288328,22.3465208 32.9750232,22.5274664 C32.9327216,22.557624 32.8921235,22.5896201 32.853229,22.6234546 L32.827,22.649 L32.8274736,22.365344 L32.051472,22.365344 L32.051472,28.048736 L32.9367696,28.048736 Z M33.8147808,25.6223648 C33.5791872,25.6223648 33.3891336,25.568324 33.24462,25.4602424 C33.1001064,25.3521608 32.9944536,25.200968 32.9276616,25.006664 C32.8608696,24.81236 32.8274736,24.587696 32.8274736,24.332672 C32.8274736,24.0752192 32.8608696,23.849948 32.9276616,23.6568584 C32.9944536,23.4637688 33.0982848,23.3131832 33.2391552,23.2051016 C33.3800256,23.09702 33.5621856,23.0429792 33.7856352,23.0429792 C34.0212288,23.0429792 34.2155328,23.1006632 34.3685472,23.2160312 C34.5215616,23.3313992 34.6345008,23.4868424 34.7073648,23.6823608 C34.7802288,23.8778792 34.8166608,24.0946496 34.8166608,24.332672 C34.8166608,24.5731232 34.780836,24.791108 34.7091864,24.9866264 C34.6375368,25.1821448 34.5276336,25.3369808 34.3794768,25.4511344 C34.23132,25.565288 34.043088,25.6223648 33.8147808,25.6223648 Z M38.090076,26.363756 C38.339028,26.369828 38.5934448,26.348576 38.8533264,26.3 L38.8533264,26.3 L38.8533264,25.5640736 C38.6080176,25.6005056 38.3894256,25.6102208 38.1975504,25.5932192 C38.0056752,25.5762176 37.8660192,25.4948528 37.7785824,25.3491248 C37.7324352,25.273832 37.70754,25.17668 37.7038968,25.0576688 C37.7002536,24.9386576 37.698432,24.800216 37.698432,24.642344 L37.698432,24.642344 L37.698,23.054 L38.8533264,23.0539088 L38.8533264,22.365344 L37.698,22.366 L37.698432,21.272384 L36.824064,21.272384 L36.824,22.366 L36.1099968,22.365344 L36.1099968,23.0539088 L36.824,23.054 L36.8248736,24.9091072 C36.8254133,24.9784629 36.8262229,25.0452549 36.8273024,25.1094832 L36.8313504,25.2944768 C36.836208,25.4717792 36.8835696,25.6454384 36.9734352,25.8154544 C37.0754448,26.002472 37.224816,26.139092 37.4215488,26.2253144 C37.6182816,26.3115368 37.841124,26.357684 38.090076,26.363756 Z" id="Concept" fill="#000000" fill-rule="nonzero"></path>
            </g>
            <g id="Group-2-Copy-2" transform="translate(645.000000, 952.000000)">
                <circle id="Oval-Copy-15" fill="#018FFF" cx="36.75" cy="36.75" r="36.75"></circle>
                <path d="M15.237449,39.25 L16.425271,35.098704 L17.621201,39.25 L18.586053,39.25 L20.288733,33.41224 L19.263071,33.41224 L18.103627,37.6284 L16.940129,33.41224 L15.914467,33.420348 L14.755023,37.6284 L13.591525,33.41224 L12.565863,33.41224 L14.272597,39.25 L15.237449,39.25 Z M21.845469,34.206824 L21.845469,33.31089 L20.868455,33.31089 L20.868455,34.206824 L21.845469,34.206824 Z M21.845469,39.25 L21.845469,34.87168 L20.868455,34.87168 L20.868455,39.25 L21.845469,39.25 Z M24.042737,39.25 L24.042737,37.024354 C24.042737,36.8567887 24.063007,36.7007097 24.103547,36.556117 C24.144087,36.4115243 24.206924,36.282472 24.292058,36.16896 C24.377192,36.055448 24.4873257,35.962206 24.622459,35.889234 C24.7575923,35.808154 24.9096173,35.7608573 25.078534,35.747344 C25.2474507,35.7338307 25.396773,35.7459927 25.526501,35.78383 L25.526501,35.78383 L25.526501,34.87168 C25.396773,34.8500587 25.262991,34.8439777 25.125155,34.853437 C24.987319,34.8628963 24.8528613,34.8885717 24.721782,34.930463 C24.5907027,34.9723543 24.4711097,35.029786 24.363003,35.102758 C24.2359777,35.1811353 24.1271953,35.2804583 24.036656,35.400727 C24.0064762,35.4408166 23.9783234,35.4823325 23.9521977,35.5252749 L23.925,35.575 L23.925171,34.87168 L23.061669,34.87168 L23.061669,39.25 L24.042737,39.25 Z M30.188601,37.332458 C30.2264383,36.8081407 30.168331,36.3527413 30.014279,35.96626 C29.860227,35.5797787 29.6244193,35.2804583 29.306856,35.068299 C28.9892927,34.8561397 28.603487,34.75006 28.149439,34.75006 C27.719715,34.75006 27.3413417,34.847356 27.014319,35.041948 C26.6872963,35.23654 26.4318943,35.510185 26.248113,35.862883 C26.0643317,36.215581 25.972441,36.631116 25.972441,37.109488 C25.972441,37.5527253 26.0663587,37.944612 26.254194,38.285148 C26.4420293,38.625684 26.7035123,38.8918967 27.038643,39.083786 C27.3737737,39.2756753 27.7629577,39.37162 28.206195,39.37162 C28.627811,39.37162 29.0136167,39.262162 29.363612,39.043246 C29.7136073,38.82433 29.9723877,38.5175773 30.139953,38.122988 L30.139953,38.122988 L29.175101,37.8311 C29.0805077,38.0338 28.94605,38.1885277 28.771728,38.295283 C28.597406,38.4020383 28.3899763,38.455416 28.149439,38.455416 C27.776471,38.455416 27.492691,38.333796 27.298099,38.090556 C27.1591047,37.9168131 27.0697512,37.6920506 27.0300386,37.4162682 L27.021,37.333 L29.710229,37.332458 L30.188601,37.332458 Z M29.195,36.595 L27.045,36.595 L27.0598231,36.5121849 C27.0955645,36.3502731 27.1491766,36.2093345 27.2206593,36.0893692 L27.298099,35.976395 C27.492691,35.729101 27.7899843,35.605454 28.189979,35.605454 C28.5440283,35.605454 28.8034843,35.714912 28.968347,35.933828 C29.0713862,36.0706505 29.1427535,36.2576201 29.1824489,36.4947369 L29.195,36.595 Z M32.454787,39.25 L32.454,35.638 L33.512881,35.637886 L33.512881,34.87168 L32.454,34.872 L32.454787,34.591954 C32.454787,34.4708745 32.4837596,34.3683894 32.5417048,34.2844986 L32.590596,34.225067 C32.6811353,34.131825 32.819647,34.085204 33.006131,34.085204 L33.006131,34.085204 L33.512881,34.085204 L33.512881,33.29062 L32.965591,33.29062 C32.860187,33.29062 32.7372157,33.2939983 32.596677,33.300755 C32.4561383,33.3075117 32.3135727,33.337241 32.16898,33.389943 C32.0243873,33.442645 31.8899297,33.537914 31.765607,33.67575 C31.6656083,33.7838567 31.5966903,33.9041253 31.558853,34.036556 C31.5210157,34.1689867 31.498043,34.302093 31.489935,34.435875 C31.481827,34.569657 31.477773,34.6919527 31.477773,34.802762 L31.477773,34.802762 L31.477,34.872 L30.772377,34.87168 L30.772377,35.637886 L31.477,35.638 L31.477773,39.25 L32.454787,39.25 Z M35.142589,39.25 L35.142589,37.024354 C35.142589,36.8567887 35.162859,36.7007097 35.203399,36.556117 C35.243939,36.4115243 35.306776,36.282472 35.39191,36.16896 C35.477044,36.055448 35.5871777,35.962206 35.722311,35.889234 C35.8574443,35.808154 36.0094693,35.7608573 36.178386,35.747344 C36.3473027,35.7338307 36.496625,35.7459927 36.626353,35.78383 L36.626353,35.78383 L36.626353,34.87168 C36.496625,34.8500587 36.362843,34.8439777 36.225007,34.853437 C36.087171,34.8628963 35.9527133,34.8885717 35.821634,34.930463 C35.6905547,34.9723543 35.5709617,35.029786 35.462855,35.102758 C35.3358297,35.1811353 35.2270473,35.2804583 35.136508,35.400727 C35.1063282,35.4408166 35.0781754,35.4823325 35.0520497,35.5252749 L35.025,35.575 L35.025023,34.87168 L34.161521,34.87168 L34.161521,39.25 L35.142589,39.25 Z M38.519571,39.37162 C38.9141603,39.37162 39.24321,39.2979723 39.50672,39.150677 C39.6823933,39.0524801 39.8433521,38.9167462 39.9895964,38.7434752 L40.056,38.658 L40.056037,39.25 L40.911431,39.25 L40.911431,36.562198 C40.911431,36.3730113 40.903323,36.1980137 40.887107,36.037205 C40.870891,35.8763963 40.8235943,35.718966 40.745217,35.564914 C40.6019757,35.2757287 40.382384,35.0676233 40.086442,34.940598 C39.7905,34.8135727 39.447937,34.75006 39.058753,34.75006 C38.5425437,34.75006 38.132414,34.8622207 37.828364,35.086542 C37.524314,35.3108633 37.3182357,35.6081567 37.210129,35.978422 L37.210129,35.978422 L38.102009,36.258148 C38.174981,36.0338267 38.3033577,35.8757207 38.487139,35.78383 C38.6709203,35.6919393 38.8614583,35.645994 39.058753,35.645994 C39.3857757,35.645994 39.618205,35.7176147 39.756041,35.860856 C39.8479317,35.9563502 39.9085915,36.0872794 39.9380206,36.2536436 L39.954,36.384 L39.7191046,36.4185062 L39.7191046,36.4185062 L39.437802,36.458821 C39.1607787,36.4980097 38.9040253,36.5405767 38.667542,36.586522 C38.4310587,36.6324673 38.2249803,36.683818 38.049307,36.740574 C37.8168777,36.8189513 37.627691,36.9196257 37.481747,37.042597 C37.335803,37.1655683 37.2276963,37.3115123 37.157427,37.480429 C37.0871577,37.6493457 37.052023,37.839208 37.052023,38.050016 C37.052023,38.2905533 37.1081033,38.5108207 37.220264,38.710818 C37.3324247,38.9108153 37.497963,39.0709483 37.716879,39.191217 C37.935795,39.3114857 38.203359,39.37162 38.519571,39.37162 Z M38.714163,38.593252 C38.560111,38.593252 38.4310587,38.568928 38.327006,38.52028 C38.2229533,38.471632 38.1439003,38.4060923 38.089847,38.323661 C38.0357937,38.2412297 38.008767,38.1459607 38.008767,38.037854 C38.008767,37.9432607 38.0297127,37.8608293 38.071604,37.79056 C38.1134953,37.7202907 38.1736297,37.6581293 38.252007,37.604076 C38.3303843,37.5500227 38.426329,37.502726 38.539841,37.462186 C38.6560557,37.4243487 38.7898377,37.3898897 38.941187,37.358809 C39.0925363,37.3277283 39.273615,37.2946207 39.484423,37.259486 C39.589827,37.2419187 39.7057038,37.223 39.8320535,37.20273 L39.94,37.186 L39.9380206,37.2892153 L39.9380206,37.2892153 L39.93239,37.439889 C39.9256333,37.6006977 39.8965797,37.7432633 39.845229,37.867586 C39.812797,37.9675847 39.74996,38.07434 39.656718,38.187852 C39.563476,38.301364 39.4384777,38.3973087 39.281723,38.475686 C39.1249683,38.5540633 38.9357817,38.593252 38.714163,38.593252 Z M42.942485,39.25 L42.942485,36.55409 C42.942485,36.2811207 43.017484,36.059502 43.167482,35.889234 C43.31748,35.718966 43.5168017,35.633832 43.765447,35.633832 C44.0222003,35.633832 44.2249003,35.718966 44.373547,35.889234 C44.5221937,36.059502 44.596517,36.2973367 44.596517,36.602738 L44.596517,36.602738 L44.596517,39.25 L45.569477,39.25 L45.569477,36.55409 C45.569477,36.3622007 45.605963,36.1966623 45.678935,36.057475 C45.751907,35.9182877 45.8505543,35.8128837 45.974877,35.741263 C46.0991997,35.6696423 46.2397383,35.633832 46.396493,35.633832 C46.6505437,35.633832 46.8518923,35.7182903 47.000539,35.887207 C47.1491857,36.0561237 47.223509,36.29058 47.223509,36.590576 L47.223509,36.590576 L47.223509,39.25 L48.200523,39.25 L48.200523,36.343282 C48.200523,35.8703153 48.0714707,35.4885637 47.813366,35.198027 C47.5552613,34.9074903 47.1843203,34.762222 46.700543,34.762222 C46.408655,34.762222 46.1437937,34.827086 45.905959,34.956814 C45.6681243,35.086542 45.4796133,35.266945 45.340426,35.498023 L45.364,35.463 L45.3329666,35.4010513 C45.2539947,35.2695396 45.1550771,35.1560276 45.0362138,35.0605153 L44.910702,34.971003 C44.6904347,34.8318157 44.4167897,34.762222 44.089767,34.762222 C43.7924737,34.762222 43.524234,34.8277617 43.285048,34.958841 C43.1415364,35.0374886 43.0157813,35.1334062 42.9077828,35.2465939 L42.82,35.348 L42.820865,34.87168 L41.957363,34.87168 L41.957363,39.25 L42.942485,39.25 Z M50.312657,34.206824 L50.312657,33.31089 L49.335643,33.31089 L49.335643,34.206824 L50.312657,34.206824 Z M50.312657,39.25 L50.312657,34.87168 L49.335643,34.87168 L49.335643,39.25 L50.312657,39.25 Z M52.509925,39.25 L52.509925,37.00003 C52.509925,36.732466 52.5396543,36.5128743 52.599113,36.341255 C52.6585717,36.1696357 52.7376247,36.0345023 52.836272,35.935855 C52.9349193,35.8372077 53.045053,35.767614 53.166673,35.727074 C53.288293,35.686534 53.4112643,35.666264 53.535587,35.666264 C53.7680163,35.666264 53.9524733,35.7162633 54.088958,35.816262 C54.2254427,35.9162607 54.328144,36.0439617 54.397062,36.199365 C54.46598,36.3547683 54.5098983,36.5162527 54.528817,36.683818 C54.5477357,36.8513833 54.557195,37.004084 54.557195,37.14192 L54.557195,37.14192 L54.557195,39.25 L55.546371,39.25 L55.546371,36.805438 C55.546371,36.700034 55.5375873,36.5628737 55.52002,36.393957 C55.5024527,36.2250403 55.4639397,36.0459887 55.404481,35.856802 C55.3450223,35.6676153 55.2531317,35.4892393 55.128809,35.321674 C55.0044863,35.1541087 54.836921,35.0162727 54.626113,34.908166 C54.415305,34.8000593 54.147741,34.746006 53.823421,34.746006 C53.4126157,34.746006 53.0666743,34.8358697 52.785597,35.015597 C52.6450583,35.1054607 52.5215802,35.2106957 52.4151628,35.3313023 L52.392,35.361 L52.392359,34.87168 L51.520749,34.87168 L51.520749,39.25 L52.509925,39.25 Z M58.440927,41.31754 C58.7706523,41.31754 59.071324,41.272946 59.342942,41.183758 C59.61456,41.09457 59.8422597,40.958761 60.026041,40.776331 C60.2098223,40.593901 60.334145,40.360796 60.399009,40.077016 C60.4206303,39.97972 60.4361707,39.880397 60.44563,39.779047 C60.4550893,39.677697 60.459819,39.5716173 60.459819,39.460808 L60.459819,39.460808 L60.459819,34.87168 L59.604425,34.87168 L59.604,35.187 L59.5757655,35.1588946 L59.5757655,35.1588946 L59.440238,35.052083 C59.1578093,34.8507343 58.8084897,34.75006 58.392279,34.75006 C57.978771,34.75006 57.6193163,34.8507343 57.313915,35.052083 C57.0085137,35.2534317 56.772706,35.5277523 56.606492,35.875045 C56.440278,36.2223377 56.357171,36.6176027 56.357171,37.06084 C56.357171,37.498672 56.4396023,37.89191 56.604465,38.240554 C56.7693277,38.589198 57.001757,38.86487 57.301753,39.06757 C57.601749,39.27027 57.9530957,39.37162 58.355793,39.37162 C58.7828143,39.37162 59.1409177,39.27027 59.430103,39.06757 L59.430103,39.06757 L59.482,39.028 L59.482805,39.444592 C59.4871293,39.6110763 59.4616161,39.7555068 59.4062655,39.8778835 L59.359158,39.965531 C59.2713213,40.1047183 59.1476743,40.2101223 58.988217,40.281743 C58.8287597,40.3533637 58.647681,40.389174 58.444981,40.389174 C58.2720103,40.389174 58.1091747,40.350661 57.956474,40.273635 C57.8037733,40.196609 57.6855317,40.0783673 57.601749,39.91891 L57.601749,39.91891 L56.701761,40.36485 C56.815273,40.5648473 56.961217,40.735791 57.139593,40.877681 C57.317969,41.019571 57.518642,41.1283533 57.741612,41.204028 C57.964582,41.2797027 58.197687,41.31754 58.440927,41.31754 Z M58.505791,38.495956 C58.2517403,38.495956 58.0422837,38.4324433 57.877421,38.305418 C57.7125583,38.1783927 57.5902627,38.0060977 57.510534,37.788533 C57.4308053,37.5709683 57.390941,37.328404 57.390941,37.06084 C57.390941,36.7959787 57.431481,36.5547657 57.512561,36.337201 C57.593641,36.1196363 57.719315,35.9466657 57.889583,35.818289 C58.059851,35.6899123 58.2760643,35.625724 58.538223,35.625724 C58.7868683,35.625724 58.9895683,35.6858583 59.146323,35.806127 C59.3030777,35.9263957 59.4186167,36.093961 59.49294,36.308823 C59.5672633,36.523685 59.604425,36.7743573 59.604425,37.06084 C59.604425,37.34462 59.5672633,37.5946167 59.49294,37.81083 C59.4186167,38.0270433 59.3010507,38.1952843 59.140242,38.315553 C58.9794333,38.4358217 58.7679497,38.495956 58.505791,38.495956 Z" id="Wireframing" fill="#000000" fill-rule="nonzero"></path>
            </g>
            <g id="Group-2-Copy-3" transform="translate(1088.000000, 775.000000)">
                <circle id="Oval-Copy-15" fill="#018FFF" cx="74" cy="74" r="74"></circle>
                <path d="M48.6911864,80.3 L48.6911864,69.6978952 L52.7608576,69.6978952 L52.7608576,67.724192 L42.516814,67.724192 L42.516814,69.6978952 L46.5864852,69.6978952 L46.5864852,80.3 L48.6911864,80.3 Z M61.3193936,76.1691964 C61.4009035,75.0397025 61.2757276,74.0586731 60.943866,73.226108 C60.6120044,72.3935429 60.1040233,71.7487417 59.4199226,71.2917042 C58.7358219,70.8346667 57.9047124,70.606148 56.926594,70.606148 C56.0008748,70.606148 55.1857761,70.8157448 54.481298,71.2349384 C53.7768199,71.654132 53.2266283,72.243623 52.8307232,73.0034114 C52.4348181,73.7631998 52.2368656,74.6583528 52.2368656,75.6888704 C52.2368656,76.6437003 52.4391847,77.4879096 52.843823,78.2214984 C53.2484613,78.9550872 53.8117527,79.5285673 54.5336972,79.9419388 C55.2556417,80.3553103 56.0940289,80.561996 57.0488588,80.561996 C57.9571116,80.561996 58.7882211,80.3261996 59.5421874,79.8546068 C60.2961537,79.383014 60.8536229,78.7222019 61.2145952,77.8721704 L61.2145952,77.8721704 L59.1360936,77.24338 C58.9323189,77.68004 58.6426678,78.0133571 58.2671402,78.2433314 C57.8916126,78.4733057 57.4447639,78.5882928 56.926594,78.5882928 C56.1231396,78.5882928 55.5118156,78.3262968 55.092622,77.8023048 C54.7877539,77.4212197 54.593747,76.926194 54.5106011,76.3172277 L54.494,76.17 L60.288876,76.1691964 L61.3193936,76.1691964 Z M59.182,74.58 L54.544,74.58 L54.5469774,74.5638033 C54.6301233,74.1024594 54.7756285,73.7143011 54.9834931,73.3993285 L55.092622,73.247941 C55.5118156,72.7152158 56.1522503,72.4488532 57.013926,72.4488532 C57.7766255,72.4488532 58.3355503,72.6846496 58.6907004,73.1562424 C58.9274672,73.4706376 59.0866055,73.9079445 59.1681153,74.4681631 L59.182,74.58 Z M66.9173748,80.561996 C68.1342007,80.561996 69.087575,80.2912668 69.7774978,79.7498084 C70.4674206,79.20835 70.812382,78.4631169 70.812382,77.5141092 C70.812382,77.02505 70.7119502,76.6087675 70.5110866,76.2652616 C70.310223,75.9217557 69.9841835,75.6262825 69.5329682,75.3788418 C69.0817529,75.1314011 68.4806176,74.9116156 67.7295624,74.7194852 C66.9959736,74.5331769 66.4443265,74.3759793 66.074621,74.2478924 C65.7049155,74.1198055 65.4589304,73.9917185 65.3366656,73.8636316 C65.2144008,73.7355447 65.1532684,73.5812581 65.1532684,73.400772 C65.1532684,73.0805547 65.3046439,72.8316585 65.6073948,72.6540834 C65.9101457,72.4765083 66.3089619,72.4022761 66.8038432,72.4313868 C67.3220131,72.4604975 67.7368401,72.5914955 68.0483242,72.8243808 C68.3598083,73.0572661 68.54175,73.3745724 68.5941492,73.7762996 L68.5941492,73.7762996 L70.7425164,73.3920388 C70.6610065,72.8272919 70.4455876,72.3353216 70.0962596,71.916128 C69.7469316,71.4969344 69.2884386,71.173806 68.7207806,70.9467428 C68.1531226,70.7196796 67.5024992,70.606148 66.7689104,70.606148 C66.0178552,70.606148 65.3657763,70.7240462 64.8126736,70.9598426 C64.2595709,71.195639 63.8287331,71.5318672 63.52016,71.9685272 C63.2115869,72.4051872 63.0573004,72.9175349 63.0573004,73.5055704 C63.0573004,73.9771632 63.1591877,74.3788904 63.3629624,74.710752 C63.5667371,75.0426136 63.9015097,75.3293537 64.3672804,75.5709722 C64.8330511,75.8125907 65.4618415,76.0381984 66.2536516,76.2477952 C66.9639519,76.4341035 67.4908549,76.58839 67.8343608,76.7106548 C68.1778667,76.8329196 68.4005633,76.959551 68.5024506,77.090549 C68.6043379,77.221547 68.6552816,77.3947555 68.6552816,77.6101744 C68.6552816,77.9595024 68.5170059,78.2345982 68.2404546,78.4354618 C67.9639033,78.6363254 67.5723648,78.7367572 67.0658392,78.7367572 C66.489448,78.7367572 66.0120331,78.6028481 65.6335944,78.33503 C65.2551557,78.0672119 65.0106261,77.7004175 64.9000056,77.2346468 L64.9000056,77.2346468 L62.7516384,77.5665084 C62.908836,78.5155161 63.3513181,79.252016 64.0790848,79.776008 C64.8068515,80.3 65.7529481,80.561996 66.9173748,80.561996 Z M76.4321962,80.452831 C77.0289649,80.4673863 77.6388333,80.4164427 78.2618016,80.3 L78.2618016,80.3 L78.2618016,78.5358936 C77.6737661,78.6232256 77.1497741,78.6465141 76.6898256,78.6057592 C76.2298771,78.5650043 75.8951044,78.3699628 75.6855076,78.0206348 C75.5748871,77.8401487 75.5152102,77.6072633 75.506477,77.3219788 C75.4977438,77.0366943 75.4933772,76.7048327 75.4933772,76.326394 L75.4933772,76.326394 L75.493,72.519 L78.2618016,72.5187188 L78.2618016,70.868144 L75.493,70.869 L75.4933772,68.248184 L73.3974092,68.248184 L73.397,70.869 L71.685702,70.868144 L71.685702,72.5187188 L73.397,72.519 L73.3974092,76.4486588 C73.3974092,76.8771678 73.4011354,77.2702783 73.4085877,77.6279901 L73.4148756,77.8896368 C73.4265199,78.3146525 73.5400515,78.7309351 73.7554704,79.1384844 C74,79.5867887 74.3580612,79.9142837 74.829654,80.1209694 C75.3012468,80.3276551 75.8354275,80.4382757 76.4321962,80.452831 Z M82.5760024,69.4358992 L82.5760024,67.505862 L80.4713012,67.505862 L80.4713012,69.4358992 L82.5760024,69.4358992 Z M82.5760024,80.3 L82.5760024,70.868144 L80.4713012,70.868144 L80.4713012,80.3 L82.5760024,80.3 Z M87.3093968,80.3 L87.3093968,75.453074 C87.3093968,74.8766828 87.3734403,74.4036345 87.5015272,74.033929 C87.6296141,73.6642235 87.7999115,73.3731169 88.0124194,73.160609 C88.2249273,72.9481011 88.4621792,72.7981812 88.7241752,72.7108492 C88.9861712,72.6235172 89.2510783,72.5798512 89.5188964,72.5798512 C90.0195999,72.5798512 90.4169605,72.6875607 90.7109782,72.9029796 C91.0049959,73.1183985 91.226237,73.3934943 91.3747014,73.728267 C91.5231658,74.0630397 91.6177755,74.4109121 91.6585304,74.7718844 C91.6992853,75.1328567 91.7196628,75.4618072 91.7196628,75.758736 L91.7196628,75.758736 L91.7196628,80.3 L93.8505636,80.3 L93.8505636,75.0338804 C93.8505636,74.8068172 93.8316417,74.5113439 93.7937978,74.1474606 C93.7559539,73.7835773 93.6729885,73.3978609 93.5449016,72.9903116 C93.4168147,72.5827623 93.2188621,72.1985015 92.951044,71.8375292 C92.6832259,71.4765569 92.3222536,71.1796281 91.8681272,70.9467428 C91.4140008,70.7138575 90.8376096,70.5974148 90.1389536,70.5974148 C89.2539893,70.5974148 88.5087563,70.7910007 87.9032544,71.1781726 C87.6341425,71.350249 87.3940693,71.548489 87.1830349,71.7728927 L87.056,71.917 L87.056134,70.868144 L85.178496,70.868144 L85.178496,80.3 L87.3093968,80.3 Z M100.086068,84.753932 C100.796369,84.753932 101.444081,84.6578668 102.029205,84.4657364 C102.61433,84.273606 103.104845,83.9810438 103.50075,83.5880498 C103.896655,83.1950558 104.164473,82.6928968 104.304204,82.0815728 C104.350781,81.871976 104.384258,81.6580126 104.404636,81.4396826 C104.425013,81.2213526 104.435202,80.9928339 104.435202,80.7541264 L104.435202,80.7541264 L104.435202,70.868144 L102.592497,70.868144 L102.592,71.544 L102.436162,71.4072304 L102.436162,71.4072304 L102.238802,71.2567714 C101.630389,70.8230225 100.877879,70.606148 99.98127,70.606148 C99.0904836,70.606148 98.3161399,70.8230225 97.6582388,71.2567714 C97.0003377,71.6905203 96.4923566,72.2814669 96.1342954,73.029611 C95.7762342,73.7777551 95.5972036,74.6292421 95.5972036,75.584072 C95.5972036,76.5272576 95.7747787,77.374378 96.1299288,78.1254332 C96.4850789,78.8764884 96.9857824,79.470346 97.6320392,79.907006 C98.278296,80.343666 99.0351733,80.561996 99.9026712,80.561996 C100.822568,80.561996 101.594001,80.343666 102.216969,79.907006 L102.216969,79.907006 L102.33,79.822 L102.330501,80.7191936 C102.340482,81.1034544 102.276676,81.4331773 102.139083,81.7083622 L102.064138,81.8414098 C101.874919,82.1412497 101.608556,82.3683129 101.26505,82.5225994 C100.921545,82.6768859 100.531462,82.7540292 100.094802,82.7540292 C99.7221851,82.7540292 99.3714015,82.6710638 99.042451,82.505133 C98.7135005,82.3392022 98.4587821,82.0844839 98.278296,81.740978 L98.278296,81.740978 L96.3395256,82.70163 C96.5840552,83.1324679 96.8984504,83.5007178 97.2827112,83.8063798 C97.666972,84.1120418 98.0992654,84.3463827 98.5795914,84.5094024 C99.0599174,84.6724221 99.5620764,84.753932 100.086068,84.753932 Z M100.2258,78.6756248 C99.6785191,78.6756248 99.2273037,78.5388047 98.8721536,78.2651644 C98.5170035,77.9915241 98.2535519,77.6203631 98.081799,77.1516814 C97.9100461,76.6829997 97.8241696,76.1604632 97.8241696,75.584072 C97.8241696,75.0135029 97.9115016,74.4938775 98.0861656,74.0251958 C98.2608296,73.5565141 98.5315588,73.1838975 98.8983532,72.9073462 C99.2651476,72.6307949 99.7309183,72.4925192 100.295665,72.4925192 C100.831301,72.4925192 101.267961,72.6220617 101.605645,72.8811466 C101.943329,73.1402315 102.192225,73.5012038 102.352334,73.9640634 C102.512442,74.426923 102.592497,74.9669259 102.592497,75.584072 C102.592497,76.195396 102.512442,76.7339433 102.352334,77.199714 C102.192225,77.6654847 101.938962,78.0279125 101.592545,78.2869974 C101.246128,78.5460823 100.790547,78.6756248 100.2258,78.6756248 Z" id="Testing" fill="#000000" fill-rule="nonzero"></path>
            </g>
            <g id="Group-2-Copy-4" transform="translate(206.000000, 995.000000)">
                <circle id="Oval-Copy-15" fill="#018FFF" cx="112" cy="112" r="112"></circle>
                <path d="M60.6838526,120.89902 C60.8455068,120.897387 61.0806402,120.893713 61.3892528,120.887998 C61.8213104,120.879997 62.2333653,120.851994 62.6254176,120.803987 C63.9936,120.627964 65.1517544,120.141899 66.0998808,119.345793 C67.0480072,118.549687 67.7661029,117.535551 68.254168,116.303387 C68.7422331,115.071223 68.9862656,113.723043 68.9862656,112.258848 C68.9862656,110.794653 68.7422331,109.446473 68.254168,108.214309 C67.7661029,106.982145 67.0480072,105.968009 66.0998808,105.171903 C65.1517544,104.375797 63.9936,103.889732 62.6254176,103.713709 C62.2253643,103.665702 61.8113091,103.637699 61.383252,103.629698 C60.9551949,103.621697 60.6691568,103.617696 60.5251376,103.617696 L55.0164032,103.617696 L55.0164032,120.9 L60.6838526,120.89902 Z M60.5251376,118.175637 L57.9567952,118.175637 L57.9567952,106.342059 L60.6770779,106.342779 C60.8902263,106.3447 61.1456203,106.35046 61.44326,106.360062 C61.8153096,106.372063 62.1453536,106.410068 62.433392,106.474077 C63.2334987,106.626097 63.8915864,106.982145 64.4076552,107.542219 C64.923724,108.102294 65.3057749,108.794386 65.553808,109.618496 C65.8018411,110.442606 65.9258576,111.322723 65.9258576,112.258848 C65.9258576,113.162969 65.8038413,114.027084 65.5598088,114.851194 C65.3157763,115.675303 64.9377259,116.375397 64.4256576,116.951474 C63.9135893,117.52755 63.2495008,117.891599 62.433392,118.043619 C62.1453536,118.099627 61.8153096,118.135631 61.44326,118.151634 C61.0712104,118.167636 60.7651696,118.175637 60.5251376,118.175637 L60.5251376,118.175637 Z M83.5922128,115.223243 C83.7042277,113.671036 83.5322048,112.322857 83.076144,111.178704 C82.6200832,110.034551 81.9219901,109.148433 80.9818648,108.52035 C80.0417395,107.892266 78.8995872,107.578224 77.555408,107.578224 C76.2832384,107.578224 75.1630891,107.866262 74.19496,108.442339 C73.2268309,109.018416 72.4707301,109.828524 71.9266576,110.872663 C71.3825851,111.916802 71.1105488,113.146966 71.1105488,114.563155 C71.1105488,115.87533 71.3885859,117.035485 71.94466,118.043619 C72.5007341,119.051754 73.2748373,119.839859 74.2669696,120.407934 C75.2591019,120.97601 76.4112555,121.260048 77.7234304,121.260048 C78.9715968,121.260048 80.1137491,120.936005 81.1498872,120.287918 C82.1860253,119.639832 82.9521275,118.731711 83.4481936,117.563555 L83.4481936,117.563555 L80.5918128,116.69944 C80.3117755,117.29952 79.9137224,117.757581 79.3976536,118.073623 C78.8815848,118.389665 78.2675029,118.547686 77.555408,118.547686 C76.4512608,118.547686 75.6111488,118.187638 75.035072,117.467542 C74.591936,116.913622 74.3192369,116.184531 74.2169748,115.280269 L74.211,115.224 L82.176024,115.223243 L83.5922128,115.223243 Z M80.656,113.039 L74.281,113.039 L74.3296718,112.794879 C74.4531169,112.235661 74.6485715,111.760955 74.9160357,111.37076 L75.035072,111.208708 C75.6111488,110.47661 76.4912661,110.110562 77.675424,110.110562 C78.7235637,110.110562 79.4916661,110.434605 79.9797312,111.082691 C80.2934873,111.499318 80.5080465,112.073007 80.6234088,112.803757 L80.656,113.039 Z M91.2852384,121.260048 C92.9574613,121.260048 94.267636,120.887998 95.2157624,120.143899 C96.1638888,119.3998 96.637952,118.375663 96.637952,117.07149 C96.637952,116.3994 96.4999336,115.827324 96.2238968,115.355261 C95.94786,114.883198 95.4998003,114.477144 94.8797176,114.137098 C94.2596349,113.797053 93.4335248,113.495013 92.4013872,113.230978 C91.3932528,112.974943 90.6351517,112.758915 90.127084,112.582891 C89.6190163,112.406868 89.2809712,112.230844 89.1129488,112.054821 C88.9449264,111.878797 88.8609152,111.666769 88.8609152,111.418736 C88.8609152,110.978677 89.0689429,110.636632 89.4849984,110.392599 C89.9010539,110.148567 90.4491269,110.046553 91.1292176,110.086558 C91.8413125,110.126564 92.4113885,110.306588 92.8394456,110.62663 C93.2675027,110.946673 93.517536,111.382731 93.5895456,111.934805 L93.5895456,111.934805 L96.5419392,111.406734 C96.4299243,110.630631 96.1338848,109.954541 95.6538208,109.378464 C95.1737568,108.802387 94.5436728,108.358328 93.7635688,108.046286 C92.9834648,107.734245 92.0893456,107.578224 91.0812112,107.578224 C90.0490736,107.578224 89.1529541,107.740246 88.3928528,108.064289 C87.6327515,108.388332 87.0406725,108.850394 86.616616,109.450474 C86.1925595,110.050554 85.9805312,110.754647 85.9805312,111.562755 C85.9805312,112.210842 86.1205499,112.762915 86.4005872,113.218976 C86.6806245,113.675037 87.1406859,114.069089 87.7807712,114.401134 C88.4208565,114.733178 89.2849717,115.043219 90.3731168,115.331258 C91.3492469,115.587292 92.0733435,115.79932 92.5454064,115.967342 C93.0174693,116.135365 93.3235101,116.309388 93.4635288,116.489412 C93.6035475,116.669436 93.6735568,116.907468 93.6735568,117.203507 C93.6735568,117.683571 93.4835315,118.061622 93.1034808,118.337658 C92.7234301,118.613695 92.1853584,118.751714 91.4892656,118.751714 C90.69716,118.751714 90.0410725,118.567689 89.5210032,118.19964 C89.0009339,117.831591 88.6648891,117.327524 88.5128688,116.687438 L88.5128688,116.687438 L85.5604752,117.143499 C85.776504,118.447673 86.3845851,119.459808 87.3847184,120.179904 C88.3848517,120.9 89.6850251,121.260048 91.2852384,121.260048 Z M102.410722,105.97001 L102.410722,103.317656 L99.518336,103.317656 L99.518336,105.97001 L102.410722,105.97001 Z M102.410722,120.9 L102.410722,107.938272 L99.518336,107.938272 L99.518336,120.9 L102.410722,120.9 Z M111.459928,127.020816 C112.436058,127.020816 113.326177,126.888798 114.130284,126.624763 C114.934391,126.360728 115.608481,125.958674 116.152554,125.418602 C116.696626,124.87853 117.064675,124.188438 117.256701,123.348326 C117.320709,123.060288 117.366715,122.766249 117.394719,122.466209 C117.422723,122.166169 117.436725,121.852127 117.436725,121.524083 L117.436725,121.524083 L117.436725,107.938272 L114.904387,107.938272 L114.904,108.867 L114.854347,108.8191 C114.785016,108.757704 114.714015,108.698109 114.641344,108.640316 L114.418322,108.472343 C113.582211,107.876264 112.548073,107.578224 111.315909,107.578224 C110.091746,107.578224 109.027604,107.876264 108.123483,108.472343 C107.219363,109.068423 106.52127,109.880531 106.029204,110.908668 C105.537138,111.936805 105.291106,113.106961 105.291106,114.419136 C105.291106,115.715309 105.535138,116.879464 106.023203,117.911602 C106.511268,118.943739 107.19936,119.759848 108.087478,120.359928 C108.975597,120.960008 110.015735,121.260048 111.207894,121.260048 C112.472063,121.260048 113.532204,120.960008 114.388318,120.359928 L114.388318,120.359928 L114.544,120.244 L114.544339,121.476077 C114.558341,122.015149 114.466673,122.476116 114.269334,122.85898 L114.17829,123.018282 C113.918256,123.430337 113.552207,123.742379 113.080144,123.954407 C112.608081,124.166435 112.07201,124.27245 111.47193,124.27245 C110.959861,124.27245 110.477797,124.158434 110.025737,123.930404 C109.573677,123.702374 109.22363,123.352327 108.975597,122.880264 L108.975597,122.880264 L106.311242,124.20044 C106.647286,124.792519 107.079344,125.298586 107.607414,125.718642 C108.135485,126.138698 108.729564,126.460741 109.389652,126.684771 C110.04974,126.908801 110.739832,127.020816 111.459928,127.020816 Z M111.651954,118.667702 C110.899853,118.667702 110.279771,118.479677 109.791706,118.103627 C109.303641,117.727577 108.941592,117.217509 108.705561,116.573423 C108.469529,115.929337 108.351514,115.211242 108.351514,114.419136 C108.351514,113.635031 108.47153,112.920936 108.711562,112.27685 C108.951594,111.632765 109.323643,111.120696 109.82771,110.740646 C110.331778,110.360595 110.971863,110.17057 111.747966,110.17057 C112.484065,110.17057 113.084145,110.348593 113.548206,110.704641 C114.012268,111.060688 114.354314,111.556754 114.574343,112.192839 C114.794373,112.828924 114.904387,113.571023 114.904387,114.419136 C114.904387,115.259248 114.794373,115.999347 114.574343,116.639432 C114.354314,117.279517 114.006267,117.777584 113.530204,118.133631 C113.054141,118.489679 112.428057,118.667702 111.651954,118.667702 Z M123.70156,120.9 L123.70156,114.239112 C123.70156,113.447006 123.789572,112.79692 123.965595,112.288852 C124.141619,111.780784 124.37565,111.380731 124.667689,111.088692 C124.959728,110.796653 125.285771,110.590626 125.645819,110.47061 C126.005867,110.350594 126.369916,110.290586 126.737965,110.290586 C127.426057,110.290586 127.972129,110.438605 128.376183,110.734645 C128.780237,111.030684 129.084278,111.408735 129.288305,111.868796 C129.492332,112.328857 129.622349,112.806921 129.678357,113.302987 C129.734364,113.799053 129.762368,114.251114 129.762368,114.659168 L129.762368,114.659168 L129.762368,120.9 L132.690758,120.9 L132.690758,113.663035 C132.690758,113.350994 132.664755,112.944939 132.612748,112.444873 C132.560741,111.944806 132.446726,111.414735 132.270702,110.854661 C132.094679,110.294586 131.822643,109.766516 131.454594,109.27045 C131.086545,108.774383 130.590478,108.366329 129.966395,108.046286 C129.342312,107.726244 128.550206,107.566222 127.590078,107.566222 C126.373916,107.566222 125.34978,107.832258 124.517669,108.364329 C124.101613,108.630364 123.736065,108.941906 123.421023,109.298953 L123.353,109.381 L123.353514,107.938272 L120.77317,107.938272 L120.77317,120.9 L123.70156,120.9 Z M138.943592,105.97001 L138.943592,103.317656 L136.051206,103.317656 L136.051206,105.97001 L138.943592,105.97001 Z M138.943592,120.9 L138.943592,107.938272 L136.051206,107.938272 L136.051206,120.9 L138.943592,120.9 Z M145.448459,120.9 L145.448459,114.239112 C145.448459,113.447006 145.536471,112.79692 145.712494,112.288852 C145.888518,111.780784 146.122549,111.380731 146.414588,111.088692 C146.706627,110.796653 147.03267,110.590626 147.392718,110.47061 C147.752766,110.350594 148.116815,110.290586 148.484864,110.290586 C149.172956,110.290586 149.719029,110.438605 150.123082,110.734645 C150.527136,111.030684 150.831177,111.408735 151.035204,111.868796 C151.239231,112.328857 151.369249,112.806921 151.425256,113.302987 C151.481263,113.799053 151.509267,114.251114 151.509267,114.659168 L151.509267,114.659168 L151.509267,120.9 L154.437658,120.9 L154.437658,113.663035 C154.437658,113.350994 154.411654,112.944939 154.359647,112.444873 C154.30764,111.944806 154.193625,111.414735 154.017602,110.854661 C153.841578,110.294586 153.569542,109.766516 153.201493,109.27045 C152.833444,108.774383 152.337378,108.366329 151.713294,108.046286 C151.089211,107.726244 150.297106,107.566222 149.336978,107.566222 C148.120815,107.566222 147.096679,107.832258 146.264568,108.364329 C145.848513,108.630364 145.482964,108.941906 145.167922,109.298953 L145.1,109.38 L145.100413,107.938272 L142.520069,107.938272 L142.520069,120.9 L145.448459,120.9 Z M163.0068,127.020816 C163.98293,127.020816 164.873049,126.888798 165.677156,126.624763 C166.481263,126.360728 167.155353,125.958674 167.699426,125.418602 C168.243498,124.87853 168.611547,124.188438 168.803573,123.348326 C168.867581,123.060288 168.913587,122.766249 168.941591,122.466209 C168.969595,122.166169 168.983597,121.852127 168.983597,121.524083 L168.983597,121.524083 L168.983597,107.938272 L166.451259,107.938272 L166.451,108.867 L166.401219,108.8191 C166.331888,108.757704 166.260887,108.698109 166.188216,108.640316 L165.965194,108.472343 C165.129083,107.876264 164.094945,107.578224 162.862781,107.578224 C161.638618,107.578224 160.574476,107.876264 159.670355,108.472343 C158.766235,109.068423 158.068142,109.880531 157.576076,110.908668 C157.08401,111.936805 156.837978,113.106961 156.837978,114.419136 C156.837978,115.715309 157.08201,116.879464 157.570075,117.911602 C158.05814,118.943739 158.746232,119.759848 159.63435,120.359928 C160.522469,120.960008 161.562607,121.260048 162.754766,121.260048 C164.018935,121.260048 165.079076,120.960008 165.93519,120.359928 L165.93519,120.359928 L166.091,120.244 L166.091211,121.476077 C166.105213,122.015149 166.013545,122.476116 165.816206,122.85898 L165.725162,123.018282 C165.465128,123.430337 165.099079,123.742379 164.627016,123.954407 C164.154953,124.166435 163.618882,124.27245 163.018802,124.27245 C162.506733,124.27245 162.024669,124.158434 161.572609,123.930404 C161.120549,123.702374 160.770502,123.352327 160.522469,122.880264 L160.522469,122.880264 L157.858114,124.20044 C158.194158,124.792519 158.626216,125.298586 159.154286,125.718642 C159.682357,126.138698 160.276436,126.460741 160.936524,126.684771 C161.596612,126.908801 162.286704,127.020816 163.0068,127.020816 Z M163.198826,118.667702 C162.446725,118.667702 161.826643,118.479677 161.338578,118.103627 C160.850513,117.727577 160.488464,117.217509 160.252433,116.573423 C160.016401,115.929337 159.898386,115.211242 159.898386,114.419136 C159.898386,113.635031 160.018402,112.920936 160.258434,112.27685 C160.498466,111.632765 160.870515,111.120696 161.374582,110.740646 C161.87865,110.360595 162.518735,110.17057 163.294838,110.17057 C164.030937,110.17057 164.631017,110.348593 165.095078,110.704641 C165.55914,111.060688 165.901186,111.556754 166.121215,112.192839 C166.341245,112.828924 166.451259,113.571023 166.451259,114.419136 C166.451259,115.259248 166.341245,115.999347 166.121215,116.639432 C165.901186,117.279517 165.553139,117.777584 165.077076,118.133631 C164.601013,118.489679 163.974929,118.667702 163.198826,118.667702 Z" id="Designing" fill="#000000" fill-rule="nonzero"></path>
            </g>
            <g id="Group-2-Copy-5" transform="translate(1318.000000, 873.000000)">
                <circle id="Oval-Copy-15" fill="#018FFF" cx="166.4" cy="166.4" r="166.4"></circle>
                <path d="M78.359872,177 L78.359872,156.940224 L75.0026456,156.940224 L75.0026456,177 L78.359872,177 Z M85.8962184,177 L85.8962184,167.736284 C85.8962184,166.798304 86.1539308,166.036775 86.6693556,165.451698 C87.1847804,164.866622 87.8696917,164.574083 88.7240896,164.574083 C89.6063483,164.574083 90.3028683,164.866622 90.8136496,165.451698 C91.3244309,166.036775 91.5798216,166.854025 91.5798216,167.903449 L91.5798216,167.903449 L91.5798216,177 L94.9231176,177 L94.9231176,167.736284 C94.9231176,167.076912 95.0484912,166.508087 95.2992384,166.02981 C95.5499856,165.551533 95.8889587,165.189343 96.3161576,164.943239 C96.7433565,164.697135 97.2262771,164.574083 97.7649192,164.574083 C98.6378909,164.574083 99.3297675,164.8643 99.8405488,165.444733 C100.35133,166.025167 100.606721,166.830808 100.606721,167.861658 L100.606721,167.861658 L100.606721,177 L103.963947,177 L103.963947,167.011903 C103.963947,165.38669 103.520496,164.074911 102.633594,163.076565 C101.746692,162.07822 100.47206,161.579047 98.8096992,161.579047 C97.8067104,161.579047 96.8965909,161.801934 96.0793408,162.247706 C95.2620907,162.693479 94.6143271,163.313382 94.13605,164.107415 L94.222,163.974 L94.1104181,163.7742 C93.7938265,163.24698 93.3839477,162.803947 92.8807817,162.4451 L92.6594276,162.296463 C91.9025425,161.818186 90.9622405,161.579047 89.8385216,161.579047 C88.8169589,161.579047 87.8952308,161.804255 87.0733372,162.254672 C86.5254081,162.554949 86.0528064,162.92849 85.655532,163.375295 L85.478,163.587 L85.4783064,161.955168 L82.5111312,161.955168 L82.5111312,177 L85.8962184,177 Z M110.943078,183.686592 L110.943,176.24 L111.124173,176.373132 C112.041436,177.016074 113.160484,177.362273 114.481317,177.41173 L114.815729,177.417912 C116.199482,177.417912 117.406783,177.069652 118.437633,176.373132 C119.468482,175.676612 120.267159,174.729345 120.833662,173.53133 C121.400165,172.333316 121.683416,170.982067 121.683416,169.477584 C121.683416,167.954527 121.395521,166.596313 120.819731,165.402942 C120.243941,164.209571 119.433656,163.266947 118.388876,162.575071 C117.344096,161.883194 116.111256,161.537256 114.690355,161.537256 C113.260167,161.537256 112.059831,161.883194 111.089347,162.575071 C110.927599,162.690384 110.772366,162.812726 110.623646,162.942098 L110.525,163.032 L110.525166,161.955168 L107.55799,161.955168 L107.55799,183.686592 L110.943078,183.686592 Z M114.300304,174.408946 C113.399471,174.408946 112.672769,174.202311 112.120196,173.789043 C111.567624,173.375774 111.163642,172.797663 110.908252,172.054708 C110.652861,171.311753 110.525166,170.452712 110.525166,169.477584 C110.525166,168.493169 110.652861,167.631806 110.908252,166.893495 C111.163642,166.155184 111.560659,165.579394 112.099301,165.166125 C112.637943,164.752857 113.334463,164.546222 114.188861,164.546222 C115.089693,164.546222 115.832648,164.766787 116.417725,165.207916 C117.002802,165.649046 117.434644,166.243409 117.713252,166.991008 C117.99186,167.738606 118.131164,168.567465 118.131164,169.477584 C118.131164,170.39699 117.994182,171.230493 117.720217,171.978091 C117.446253,172.725689 117.026019,173.317731 116.459516,173.754217 C115.893013,174.190703 115.173276,174.408946 114.300304,174.408946 Z M128.383938,177 L128.383938,156.522312 L125.026712,156.522312 L125.026712,177 L128.383938,177 Z M146.21485,170.410921 C146.344867,168.609256 146.145198,167.044407 145.615843,165.716376 C145.086488,164.388345 144.276203,163.359817 143.184988,162.630792 C142.093774,161.901768 140.768064,161.537256 139.207859,161.537256 C137.731237,161.537256 136.431066,161.871586 135.307347,162.540245 C134.183628,163.208904 133.306013,164.149206 132.674502,165.361151 C132.04299,166.573096 131.727234,168.000962 131.727234,169.644749 C131.727234,171.167806 132.049955,172.514411 132.695397,173.684565 C133.340839,174.854718 134.23935,175.769481 135.39093,176.428854 C136.542509,177.088226 137.879828,177.417912 139.402885,177.417912 C140.851646,177.417912 142.177356,177.041791 143.380014,176.28955 C144.582672,175.537308 145.471896,174.483241 146.047686,173.127349 L146.047686,173.127349 L142.73225,172.12436 C142.407208,172.82088 141.945183,173.352557 141.346176,173.719391 C140.747168,174.086225 140.034396,174.269642 139.207859,174.269642 C137.926262,174.269642 136.951134,173.85173 136.282475,173.015906 C135.792125,172.402968 135.48157,171.605241 135.35081,170.622725 L135.326,170.411 L144.571063,170.410921 L146.21485,170.410921 Z M142.806,167.876 L135.408,167.876 L135.439965,167.704523 C135.582612,167.000202 135.820357,166.407489 136.153201,165.926385 L136.282475,165.751202 C136.951134,164.901448 137.972697,164.47657 139.347163,164.47657 C140.563751,164.47657 141.455297,164.852691 142.0218,165.604933 C142.399469,166.106427 142.653311,166.803979 142.783329,167.697588 L142.806,167.876 Z M152.274574,177 L152.274574,167.736284 C152.274574,166.798304 152.532287,166.036775 153.047712,165.451698 C153.563136,164.866622 154.248048,164.574083 155.102446,164.574083 C155.984704,164.574083 156.681224,164.866622 157.192006,165.451698 C157.702787,166.036775 157.958178,166.854025 157.958178,167.903449 L157.958178,167.903449 L157.958178,177 L161.301474,177 L161.301474,167.736284 C161.301474,167.076912 161.426847,166.508087 161.677594,166.02981 C161.928342,165.551533 162.267315,165.189343 162.694514,164.943239 C163.121713,164.697135 163.604633,164.574083 164.143275,164.574083 C165.016247,164.574083 165.708123,164.8643 166.218905,165.444733 C166.729686,166.025167 166.985077,166.830808 166.985077,167.861658 L166.985077,167.861658 L166.985077,177 L170.342303,177 L170.342303,167.011903 C170.342303,165.38669 169.898852,164.074911 169.01195,163.076565 C168.125048,162.07822 166.850416,161.579047 165.188055,161.579047 C164.185066,161.579047 163.274947,161.801934 162.457697,162.247706 C161.640447,162.693479 160.992683,163.313382 160.514406,164.107415 L160.6,163.974 L160.488774,163.7742 C160.172183,163.24698 159.762304,162.803947 159.259138,162.4451 L159.037784,162.296463 C158.280899,161.818186 157.340597,161.579047 156.216878,161.579047 C155.195315,161.579047 154.273587,161.804255 153.451693,162.254672 C152.903764,162.554949 152.431162,162.92849 152.033888,163.375295 L151.856,163.587 L151.856662,161.955168 L148.889487,161.955168 L148.889487,177 L152.274574,177 Z M187.379182,170.410921 C187.509199,168.609256 187.30953,167.044407 186.780175,165.716376 C186.25082,164.388345 185.440535,163.359817 184.34932,162.630792 C183.258106,161.901768 181.932396,161.537256 180.372191,161.537256 C178.895569,161.537256 177.595398,161.871586 176.471679,162.540245 C175.34796,163.208904 174.470345,164.149206 173.838834,165.361151 C173.207322,166.573096 172.891566,168.000962 172.891566,169.644749 C172.891566,171.167806 173.214287,172.514411 173.859729,173.684565 C174.505171,174.854718 175.403682,175.769481 176.555262,176.428854 C177.706841,177.088226 179.04416,177.417912 180.567217,177.417912 C182.015978,177.417912 183.341688,177.041791 184.544346,176.28955 C185.747004,175.537308 186.636228,174.483241 187.212018,173.127349 L187.212018,173.127349 L183.896582,172.12436 C183.57154,172.82088 183.109515,173.352557 182.510508,173.719391 C181.9115,174.086225 181.198728,174.269642 180.372191,174.269642 C179.090594,174.269642 178.115466,173.85173 177.446807,173.015906 C176.956457,172.402968 176.645902,171.605241 176.515142,170.622725 L176.49,170.411 L185.735395,170.410921 L187.379182,170.410921 Z M183.97,167.876 L176.573,167.876 L176.604297,167.704523 C176.746944,167.000202 176.984689,166.407489 177.317533,165.926385 L177.446807,165.751202 C178.115466,164.901448 179.137029,164.47657 180.511495,164.47657 C181.728083,164.47657 182.619629,164.852691 183.186132,165.604933 C183.563801,166.106427 183.817643,166.803979 183.947661,167.697588 L183.97,167.876 Z M193.452837,177 L193.452837,169.268628 C193.452837,168.349222 193.554993,167.594658 193.759306,167.004938 C193.963618,166.415218 194.235261,165.950871 194.574234,165.611898 C194.913207,165.272925 195.29165,165.033786 195.709562,164.894482 C196.127474,164.755178 196.550029,164.685526 196.977228,164.685526 C197.775904,164.685526 198.409737,164.857335 198.878728,165.200951 C199.347718,165.544568 199.700621,165.983375 199.937438,166.517374 C200.174255,167.051373 200.325167,167.606267 200.390176,168.182057 C200.455185,168.757847 200.487689,169.282558 200.487689,169.756192 L200.487689,169.756192 L200.487689,177 L203.886706,177 L203.886706,168.599969 C203.886706,168.237778 203.856524,167.766467 203.796159,167.186033 C203.735794,166.6056 203.603455,165.990341 203.399142,165.340255 C203.19483,164.69017 202.879074,164.077232 202.451875,163.501442 C202.024676,162.925653 201.448886,162.452019 200.724506,162.080542 C200.000125,161.709064 199.080718,161.523326 197.966286,161.523326 C196.554673,161.523326 195.365945,161.832116 194.400104,162.449697 C193.961085,162.730416 193.570516,163.054787 193.228396,163.42281 L193.048,163.626 L193.048855,161.955168 L190.053819,161.955168 L190.053819,177 L193.452837,177 Z M213.408135,177.243782 C214.360045,177.266999 215.332852,177.185739 216.326554,177 L216.326554,177 L216.326554,174.186059 C215.388573,174.325363 214.552749,174.362511 213.819082,174.297502 C213.085414,174.232494 212.551415,173.921382 212.217086,173.364166 C212.040634,173.076271 211.945443,172.704793 211.931512,172.249734 C211.917582,171.794674 211.910617,171.265319 211.910617,170.661668 L211.910617,170.661668 L211.91,164.589 L216.326554,164.588014 L216.326554,161.955168 L211.91,161.956 L211.910617,157.776048 L208.567321,157.776048 L208.567,161.956 L205.836962,161.955168 L205.836962,164.588014 L208.567,164.589 L208.567321,170.856694 C208.567321,171.568692 208.57377,172.219422 208.586669,172.808884 L208.595182,173.15521 C208.613755,173.833156 208.794851,174.497171 209.138467,175.147257 C209.528518,175.862351 210.099665,176.384741 210.851906,176.714427 C211.604148,177.044113 212.456224,177.220565 213.408135,177.243782 Z M223.208171,159.670582 L223.208171,156.591964 L219.850945,156.591964 L219.850945,159.670582 L223.208171,159.670582 Z M223.208171,177 L223.208171,161.955168 L219.850945,161.955168 L219.850945,177 L223.208171,177 Z M230.758448,177 L230.758448,169.268628 C230.758448,168.349222 230.860604,167.594658 231.064917,167.004938 C231.269229,166.415218 231.540872,165.950871 231.879845,165.611898 C232.218818,165.272925 232.597261,165.033786 233.015173,164.894482 C233.433085,164.755178 233.85564,164.685526 234.282839,164.685526 C235.081515,164.685526 235.715349,164.857335 236.184339,165.200951 C236.653329,165.544568 237.006232,165.983375 237.243049,166.517374 C237.479866,167.051373 237.630779,167.606267 237.695787,168.182057 C237.760796,168.757847 237.7933,169.282558 237.7933,169.756192 L237.7933,169.756192 L237.7933,177 L241.192318,177 L241.192318,168.599969 C241.192318,168.237778 241.162135,167.766467 241.10177,167.186033 C241.041405,166.6056 240.909066,165.990341 240.704754,165.340255 C240.500441,164.69017 240.184685,164.077232 239.757486,163.501442 C239.330287,162.925653 238.754498,162.452019 238.030117,162.080542 C237.305736,161.709064 236.38633,161.523326 235.271898,161.523326 C233.860284,161.523326 232.671556,161.832116 231.705715,162.449697 C231.266697,162.730416 230.876127,163.054787 230.534007,163.42281 L230.354,163.626 L230.354466,161.955168 L227.35943,161.955168 L227.35943,177 L230.758448,177 Z M251.138623,184.104504 C252.271629,184.104504 253.3048,183.95127 254.238137,183.644801 C255.171474,183.338332 255.953898,182.871664 256.58541,182.244796 C257.216921,181.617928 257.64412,180.81693 257.867006,179.841802 C257.941302,179.507472 257.994702,179.166177 258.027206,178.817917 C258.05971,178.469657 258.075962,178.105145 258.075962,177.724381 L258.075962,177.724381 L258.075962,161.955168 L255.136648,161.955168 L255.136,163.032 L255.038168,162.942098 C254.963808,162.877412 254.887819,162.814483 254.810203,162.753312 L254.572467,162.575071 C253.601982,161.883194 252.401646,161.537256 250.971458,161.537256 C249.550558,161.537256 248.315395,161.883194 247.265972,162.575071 C246.216549,163.266947 245.406264,164.209571 244.835117,165.402942 C244.263971,166.596313 243.978398,167.954527 243.978398,169.477584 C243.978398,170.982067 244.261649,172.333316 244.828152,173.53133 C245.394655,174.729345 246.193331,175.676612 247.224181,176.373132 C248.25503,177.069652 249.462332,177.417912 250.846085,177.417912 C252.31342,177.417912 253.543939,177.069652 254.537641,176.373132 L254.537641,176.373132 L254.718,176.24 L254.718994,177.902638 C254.705751,178.438357 254.595598,178.902445 254.388534,179.294904 L254.293859,179.458716 C253.992033,179.936993 253.567156,180.299183 253.019227,180.545287 C252.471298,180.791391 251.849074,180.914442 251.152554,180.914442 C250.55819,180.914442 249.998652,180.782104 249.47394,180.517426 C248.949229,180.252748 248.542925,179.846445 248.25503,179.298516 L248.25503,179.298516 L245.162482,180.83086 C245.552533,181.518093 246.054027,182.105492 246.666965,182.593056 C247.279902,183.08062 247.969457,183.454419 248.735629,183.714453 C249.501801,183.974487 250.302799,184.104504 251.138623,184.104504 Z M251.36151,174.408946 C250.488538,174.408946 249.768801,174.190703 249.202298,173.754217 C248.635795,173.317731 248.215561,172.725689 247.941596,171.978091 C247.667632,171.230493 247.53065,170.39699 247.53065,169.477584 C247.53065,168.567465 247.669954,167.738606 247.948562,166.991008 C248.22717,166.243409 248.659012,165.649046 249.244089,165.207916 C249.829166,164.766787 250.57212,164.546222 251.472953,164.546222 C252.327351,164.546222 253.023871,164.752857 253.562513,165.166125 C254.101155,165.579394 254.498171,166.155184 254.753562,166.893495 C255.008953,167.631806 255.136648,168.493169 255.136648,169.477584 C255.136648,170.452712 255.008953,171.311753 254.753562,172.054708 C254.498171,172.797663 254.09419,173.375774 253.541617,173.789043 C252.989045,174.202311 252.262342,174.408946 251.36151,174.408946 Z" id="Implementing" fill="#000000" fill-rule="nonzero"></path>
            </g>
        </g>
    </g>
</svg>